ISO-10303-21;
HEADER;
FILE_DESCRIPTION(('ViewDefinition [CoordinationView]'),'2;1');
FILE_NAME('','2026-08-21T15:28:15',(''),(''),'IfcOpenShell 0.8.5-1c5b825','IfcOpenShell 0.8.5-1c5b825','');
FILE_SCHEMA(('IFC4'));
ENDSEC;
DATA;
#1=IFCPROJECT('3izySX7_z6XfLbM56i8ZV9',$,'ArchiAgent - Demolition Plan Ground Floor',$,$,$,$,(#10),#5);
#2=IFCSIUNIT(*,.LENGTHUNIT.,$,.METRE.);
#3=IFCSIUNIT(*,.AREAUNIT.,$,.SQUARE_METRE.);
#4=IFCSIUNIT(*,.VOLUMEUNIT.,$,.CUBIC_METRE.);
#5=IFCUNITASSIGNMENT((#3,#4,#2));
#6=IFCCARTESIANPOINT((0.,0.,0.));
#7=IFCDIRECTION((0.,0.,1.));
#8=IFCDIRECTION((1.,0.,0.));
#9=IFCAXIS2PLACEMENT3D(#6,#7,#8);
#10=IFCGEOMETRICREPRESENTATIONCONTEXT($,'Model',3,1.0000000000000001E-05,#9,$);
#11=IFCGEOMETRICREPRESENTATIONSUBCONTEXT('Body','Model',*,*,*,*,#10,$,.MODEL_VIEW.,$);
#12=IFCSITE('2rPpkRKTzEm8Df6jboQ6SB',$,'Site',$,$,$,$,$,$,$,$,$,$,$);
#13=IFCBUILDING('0lfzD8vmHAGOmiDwxBnWtw',$,'Building',$,$,$,$,$,$,$,$,$);
#14=IFCBUILDINGSTOREY('18ayw4HyD8p8YPzpBOXxRx',$,'Ground Floor',$,$,$,$,$,$,$);
#15=IFCRELAGGREGATES('1aky16RQj0ZQ_caC7RPteN',$,$,$,#1,(#12));
#16=IFCRELAGGREGATES('3GEKGFhGr2vPCJUrNgtgVR',$,$,$,#12,(#13));
#17=IFCRELAGGREGATES('0fvUAUoffEjAxbn0dK4l6U',$,$,$,#13,(#14));
#18=IFCWALL('2vtA6EdzrDvQOOVdIvkNC4',$,'W001',$,$,#35,#30,$,$);
#19=IFCRELCONTAINEDINSPATIALSTRUCTURE('3C9oY8P8v0kvyWbyklAHjj',$,$,$,(#847,#180,#433,#686,#893,#939,#226,#479,#732,#65,#778,#985,#272,#525,#1031,#111,#364,#318,#571,#617,#824,#157,#410,#870,#456,#1077,#663,#1123,#203,#709,#916,#962,#18,#249,#502,#548,#755,#1008,#88,#295,#42,#801,#1054,#341,#387,#594,#640,#1100,#134),#14);
#20=IFCCARTESIANPOINTLIST2D(((0.,-0.050881266145679727),(1.71454899872086,-0.050881266145679727),(1.71454899872086,0.050881266145679727),(0.,0.050881266145679727)));
#21=IFCINDEXEDPOLYCURVE(#20,(IFCLINEINDEX((1,2,3,4,1))),$);
#22=IFCARBITRARYCLOSEDPROFILEDEF(.AREA.,$,#21);
#23=IFCCARTESIANPOINT((0.,0.,0.));
#24=IFCDIRECTION((0.,0.,1.));
#25=IFCDIRECTION((1.,0.,0.));
#26=IFCAXIS2PLACEMENT3D(#23,#24,#25);
#27=IFCDIRECTION((0.,0.,1.));
#28=IFCEXTRUDEDAREASOLID(#22,#26,#27,3.048);
#29=IFCSHAPEREPRESENTATION(#11,'Body','SweptSolid',(#28));
#30=IFCPRODUCTDEFINITIONSHAPE($,$,(#29));
#31=IFCCARTESIANPOINT((11.670336804455482,0.,0.));
#32=IFCDIRECTION((0.,0.,1.));
#33=IFCDIRECTION((1.,0.,0.));
#34=IFCAXIS2PLACEMENT3D(#31,#32,#33);
#35=IFCLOCALPLACEMENT($,#34);
#36=IFCPROPERTYSET('2mVXQ2FSfCBOS_qDeEcUWS',$,'ArchiAgent_Provenance',$,(#38,#39,#40,#41));
#37=IFCRELDEFINESBYPROPERTIES('1DAB5n2Ej4j9MPlojdeOqq',$,$,$,(#18),#36);
#38=IFCPROPERTYSINGLEVALUE('SourceLayer',$,IFCLABEL('wall'),$);
#39=IFCPROPERTYSINGLEVALUE('Detector',$,IFCLABEL('paired-line'),$);
#40=IFCPROPERTYSINGLEVALUE('ThicknessIn',$,IFCREAL(4.0099999999999998),$);
#41=IFCPROPERTYSINGLEVALUE('ScalePtPerFt',$,IFCREAL(11.861000000000001),$);
#42=IFCWALL('2HExpF3Dn9Fw$8_6UUyyQ8',$,'W002',$,$,#58,#53,$,$);
#43=IFCCARTESIANPOINTLIST2D(((0.,-0.050881658260923265),(0.79868385540716369,-0.050881658260923265),(0.79868385540716369,0.050881658260923265),(0.,0.050881658260923265)));
#44=IFCINDEXEDPOLYCURVE(#43,(IFCLINEINDEX((1,2,3,4,1))),$);
#45=IFCARBITRARYCLOSEDPROFILEDEF(.AREA.,$,#44);
#46=IFCCARTESIANPOINT((0.,0.,0.));
#47=IFCDIRECTION((0.,0.,1.));
#48=IFCDIRECTION((1.,0.,0.));
#49=IFCAXIS2PLACEMENT3D(#46,#47,#48);
#50=IFCDIRECTION((0.,0.,1.));
#51=IFCEXTRUDEDAREASOLID(#45,#49,#50,3.048);
#52=IFCSHAPEREPRESENTATION(#11,'Body','SweptSolid',(#51));
#53=IFCPRODUCTDEFINITIONSHAPE($,$,(#52));
#54=IFCCARTESIANPOINT((3.2425309368635595,0.10176292440660299,0.));
#55=IFCDIRECTION((0.,0.,1.));
#56=IFCDIRECTION((1.,0.,0.));
#57=IFCAXIS2PLACEMENT3D(#54,#55,#56);
#58=IFCLOCALPLACEMENT($,#57);
#59=IFCPROPERTYSET('2SnxundY15PuFXLTUANVmr',$,'ArchiAgent_Provenance',$,(#61,#62,#63,#64));
#60=IFCRELDEFINESBYPROPERTIES('38E5wjFrDDlQ_h22LalfW6',$,$,$,(#42),#59);
#61=IFCPROPERTYSINGLEVALUE('SourceLayer',$,IFCLABEL('wall'),$);
#62=IFCPROPERTYSINGLEVALUE('Detector',$,IFCLABEL('paired-line'),$);
#63=IFCPROPERTYSINGLEVALUE('ThicknessIn',$,IFCREAL(4.0099999999999998),$);
#64=IFCPROPERTYSINGLEVALUE('ScalePtPerFt',$,IFCREAL(11.861000000000001),$);
#65=IFCWALL('3NikqDjQ51qh$6KkYpxBuo',$,'W003',$,$,#81,#76,$,$);
#66=IFCCARTESIANPOINTLIST2D(((0.,-0.050881658260923265),(0.80176705756885824,-0.050881658260923265),(0.80176705756885824,0.050881658260923265),(0.,0.050881658260923265)));
#67=IFCINDEXEDPOLYCURVE(#66,(IFCLINEINDEX((1,2,3,4,1))),$);
#68=IFCARBITRARYCLOSEDPROFILEDEF(.AREA.,$,#67);
#69=IFCCARTESIANPOINT((0.,0.,0.));
#70=IFCDIRECTION((0.,0.,1.));
#71=IFCDIRECTION((1.,0.,0.));
#72=IFCAXIS2PLACEMENT3D(#69,#70,#71);
#73=IFCDIRECTION((0.,0.,1.));
#74=IFCEXTRUDEDAREASOLID(#68,#72,#73,3.048);
#75=IFCSHAPEREPRESENTATION(#11,'Body','SweptSolid',(#74));
#76=IFCPRODUCTDEFINITIONSHAPE($,$,(#75));
#77=IFCCARTESIANPOINT((1.6174108775567968,0.10176292440660299,0.));
#78=IFCDIRECTION((0.,0.,1.));
#79=IFCDIRECTION((1.,0.,0.));
#80=IFCAXIS2PLACEMENT3D(#77,#78,#79);
#81=IFCLOCALPLACEMENT($,#80);
#82=IFCPROPERTYSET('2N2zuRIDf6kvzJdRUVz2nG',$,'ArchiAgent_Provenance',$,(#84,#85,#86,#87));
#83=IFCRELDEFINESBYPROPERTIES('0zmX03_Y53oR1way5$Kia8',$,$,$,(#65),#82);
#84=IFCPROPERTYSINGLEVALUE('SourceLayer',$,IFCLABEL('wall'),$);
#85=IFCPROPERTYSINGLEVALUE('Detector',$,IFCLABEL('paired-line'),$);
#86=IFCPROPERTYSINGLEVALUE('ThicknessIn',$,IFCREAL(4.0099999999999998),$);
#87=IFCPROPERTYSINGLEVALUE('ScalePtPerFt',$,IFCREAL(11.861000000000001),$);
#88=IFCWALL('1iPr8fB7108QLuA3ykd5dS',$,'W004',$,$,#104,#99,$,$);
#89=IFCCARTESIANPOINTLIST2D(((0.,-0.050880874030435654),(0.6414142734394771,-0.050880874030435654),(0.6414142734394771,0.050880874030435654),(0.,0.050880874030435654)));
#90=IFCINDEXEDPOLYCURVE(#89,(IFCLINEINDEX((1,2,3,4,1))),$);
#91=IFCARBITRARYCLOSEDPROFILEDEF(.AREA.,$,#90);
#92=IFCCARTESIANPOINT((0.,0.,0.));
#93=IFCDIRECTION((0.,0.,1.));
#94=IFCDIRECTION((1.,0.,0.));
#95=IFCAXIS2PLACEMENT3D(#92,#93,#94);
#96=IFCDIRECTION((0.,0.,1.));
#97=IFCEXTRUDEDAREASOLID(#91,#95,#96,3.048);
#98=IFCSHAPEREPRESENTATION(#11,'Body','SweptSolid',(#97));
#99=IFCPRODUCTDEFINITIONSHAPE($,$,(#98));
#100=IFCCARTESIANPOINT((9.6350814532453715,0.92511631825975082,0.));
#101=IFCDIRECTION((0.,0.,1.));
#102=IFCDIRECTION((1.,0.,0.));
#103=IFCAXIS2PLACEMENT3D(#100,#101,#102);
#104=IFCLOCALPLACEMENT($,#103);
#105=IFCPROPERTYSET('37mqdBdH9EKh30vN5RM_ll',$,'ArchiAgent_Provenance',$,(#107,#108,#109,#110));
#106=IFCRELDEFINESBYPROPERTIES('35S9bnscb45vHIZ2e_dyRZ',$,$,$,(#88),#105);
#107=IFCPROPERTYSINGLEVALUE('SourceLayer',$,IFCLABEL('wall'),$);
#108=IFCPROPERTYSINGLEVALUE('Detector',$,IFCLABEL('paired-line'),$);
#109=IFCPROPERTYSINGLEVALUE('ThicknessIn',$,IFCREAL(4.0099999999999998),$);
#110=IFCPROPERTYSINGLEVALUE('ScalePtPerFt',$,IFCREAL(11.861000000000001),$);
#111=IFCWALL('0rYcSIftzFKeVl0hQ7mL8O',$,'W005',$,$,#127,#122,$,$);
#112=IFCCARTESIANPOINTLIST2D(((0.,-0.050880874030435654),(0.81410339525282394,-0.050880874030435654),(0.81410339525282394,0.050880874030435654),(0.,0.050880874030435654)));
#113=IFCINDEXEDPOLYCURVE(#112,(IFCLINEINDEX((1,2,3,4,1))),$);
#114=IFCARBITRARYCLOSEDPROFILEDEF(.AREA.,$,#113);
#115=IFCCARTESIANPOINT((0.,0.,0.));
#116=IFCDIRECTION((0.,0.,1.));
#117=IFCDIRECTION((1.,0.,0.));
#118=IFCAXIS2PLACEMENT3D(#115,#116,#117);
#119=IFCDIRECTION((0.,0.,1.));
#120=IFCEXTRUDEDAREASOLID(#114,#118,#119,3.048);
#121=IFCSHAPEREPRESENTATION(#11,'Body','SweptSolid',(#120));
#122=IFCPRODUCTDEFINITIONSHAPE($,$,(#121));
#123=IFCCARTESIANPOINT((10.754471661141787,0.92511631825975082,0.));
#124=IFCDIRECTION((0.,0.,1.));
#125=IFCDIRECTION((1.,0.,0.));
#126=IFCAXIS2PLACEMENT3D(#123,#124,#125);
#127=IFCLOCALPLACEMENT($,#126);
#128=IFCPROPERTYSET('2RT7TWAUPB2BLpr4De9evM',$,'ArchiAgent_Provenance',$,(#130,#131,#132,#133));
#129=IFCRELDEFINESBYPROPERTIES('0uK6uvexDE2gFe68eVFboZ',$,$,$,(#111),#128);
#130=IFCPROPERTYSINGLEVALUE('SourceLayer',$,IFCLABEL('wall'),$);
#131=IFCPROPERTYSINGLEVALUE('Detector',$,IFCLABEL('paired-line'),$);
#132=IFCPROPERTYSINGLEVALUE('ThicknessIn',$,IFCREAL(4.0099999999999998),$);
#133=IFCPROPERTYSINGLEVALUE('ScalePtPerFt',$,IFCREAL(11.861000000000001),$);
#134=IFCWALL('0AvS$aeF9DXg23Lo8iJm_6',$,'W006',$,$,#150,#145,$,$);
#135=IFCCARTESIANPOINTLIST2D(((0.,-0.050881658260923265),(1.9334936031492391,-0.050881658260923265),(1.9334936031492391,0.050881658260923265),(0.,0.050881658260923265)));
#136=IFCINDEXEDPOLYCURVE(#135,(IFCLINEINDEX((1,2,3,4,1))),$);
#137=IFCARBITRARYCLOSEDPROFILEDEF(.AREA.,$,#136);
#138=IFCCARTESIANPOINT((0.,0.,0.));
#139=IFCDIRECTION((0.,0.,1.));
#140=IFCDIRECTION((1.,0.,0.));
#141=IFCAXIS2PLACEMENT3D(#138,#139,#140);
#142=IFCDIRECTION((0.,0.,1.));
#143=IFCEXTRUDEDAREASOLID(#137,#141,#142,3.048);
#144=IFCSHAPEREPRESENTATION(#11,'Body','SweptSolid',(#143));
#145=IFCPRODUCTDEFINITIONSHAPE($,$,(#144));
#146=IFCCARTESIANPOINT((9.6350814532453715,2.4114691454909338,0.));
#147=IFCDIRECTION((0.,0.,1.));
#148=IFCDIRECTION((1.,0.,0.));
#149=IFCAXIS2PLACEMENT3D(#146,#147,#148);
#150=IFCLOCALPLACEMENT($,#149);
#151=IFCPROPERTYSET('2EFXjxvHT0pgRB72ehNVge',$,'ArchiAgent_Provenance',$,(#153,#154,#155,#156));
#152=IFCRELDEFINESBYPROPERTIES('11yGaaG9T25QyfWriuE2vS',$,$,$,(#134),#151);
#153=IFCPROPERTYSINGLEVALUE('SourceLayer',$,IFCLABEL('wall'),$);
#154=IFCPROPERTYSINGLEVALUE('Detector',$,IFCLABEL('paired-line'),$);
#155=IFCPROPERTYSINGLEVALUE('ThicknessIn',$,IFCREAL(4.0099999999999998),$);
#156=IFCPROPERTYSINGLEVALUE('ScalePtPerFt',$,IFCREAL(11.861000000000001),$);
#157=IFCWALL('1mzN07kZr43PS8ySs8eUTn',$,'W007',$,$,#173,#168,$,$);
#158=IFCCARTESIANPOINTLIST2D(((0.,-0.050881266145679727),(0.47797671868742625,-0.050881266145679727),(0.47797671868742625,0.050881266145679727),(0.,0.050881266145679727)));
#159=IFCINDEXEDPOLYCURVE(#158,(IFCLINEINDEX((1,2,3,4,1))),$);
#160=IFCARBITRARYCLOSEDPROFILEDEF(.AREA.,$,#159);
#161=IFCCARTESIANPOINT((0.,0.,0.));
#162=IFCDIRECTION((0.,0.,1.));
#163=IFCDIRECTION((1.,0.,0.));
#164=IFCAXIS2PLACEMENT3D(#161,#162,#163);
#165=IFCDIRECTION((0.,0.,1.));
#166=IFCEXTRUDEDAREASOLID(#160,#164,#165,3.048);
#167=IFCSHAPEREPRESENTATION(#11,'Body','SweptSolid',(#166));
#168=IFCPRODUCTDEFINITIONSHAPE($,$,(#167));
#169=IFCCARTESIANPOINT((3.5632380735832969,3.0405478654769302,0.));
#170=IFCDIRECTION((0.,0.,1.));
#171=IFCDIRECTION((1.,0.,0.));
#172=IFCAXIS2PLACEMENT3D(#169,#170,#171);
#173=IFCLOCALPLACEMENT($,#172);
#174=IFCPROPERTYSET('0NphODJhDEAfSoUK5a4lS3',$,'ArchiAgent_Provenance',$,(#176,#177,#178,#179));
#175=IFCRELDEFINESBYPROPERTIES('2$s_HmrSb3CvDFQaxoagM0',$,$,$,(#157),#174);
#176=IFCPROPERTYSINGLEVALUE('SourceLayer',$,IFCLABEL('wall'),$);
#177=IFCPROPERTYSINGLEVALUE('Detector',$,IFCLABEL('paired-line'),$);
#178=IFCPROPERTYSINGLEVALUE('ThicknessIn',$,IFCREAL(4.0099999999999998),$);
#179=IFCPROPERTYSINGLEVALUE('ScalePtPerFt',$,IFCREAL(11.861000000000001),$);
#180=IFCWALL('3CVOHrOs54qxL_rgKl1l$V',$,'W008',$,$,#196,#191,$,$);
#181=IFCCARTESIANPOINTLIST2D(((0.,-0.050881266145679727),(0.9497854645904904,-0.050881266145679727),(0.9497854645904904,0.050881266145679727),(0.,0.050881266145679727)));
#182=IFCINDEXEDPOLYCURVE(#181,(IFCLINEINDEX((1,2,3,4,1))),$);
#183=IFCARBITRARYCLOSEDPROFILEDEF(.AREA.,$,#182);
#184=IFCCARTESIANPOINT((0.,0.,0.));
#185=IFCDIRECTION((0.,0.,1.));
#186=IFCDIRECTION((1.,0.,0.));
#187=IFCAXIS2PLACEMENT3D(#184,#185,#186);
#188=IFCDIRECTION((0.,0.,1.));
#189=IFCEXTRUDEDAREASOLID(#183,#187,#188,3.048);
#190=IFCSHAPEREPRESENTATION(#11,'Body','SweptSolid',(#189));
#191=IFCPRODUCTDEFINITIONSHAPE($,$,(#190));
#192=IFCCARTESIANPOINT((1.65133198306408,3.0405478654769302,0.));
#193=IFCDIRECTION((0.,0.,1.));
#194=IFCDIRECTION((1.,0.,0.));
#195=IFCAXIS2PLACEMENT3D(#192,#193,#194);
#196=IFCLOCALPLACEMENT($,#195);
#197=IFCPROPERTYSET('2$jenjiE5EI85clmQnBio$',$,'ArchiAgent_Provenance',$,(#199,#200,#201,#202));
#198=IFCRELDEFINESBYPROPERTIES('28vqQWWD92eQ0kkE0Lichx',$,$,$,(#180),#197);
#199=IFCPROPERTYSINGLEVALUE('SourceLayer',$,IFCLABEL('wall'),$);
#200=IFCPROPERTYSINGLEVALUE('Detector',$,IFCLABEL('paired-line'),$);
#201=IFCPROPERTYSINGLEVALUE('ThicknessIn',$,IFCREAL(4.0099999999999998),$);
#202=IFCPROPERTYSINGLEVALUE('ScalePtPerFt',$,IFCREAL(11.861000000000001),$);
#203=IFCWALL('3pVyCy9izEwu6VdBtZBwv8',$,'W009',$,$,#219,#214,$,$);
#204=IFCCARTESIANPOINTLIST2D(((0.,-0.050881266145679727),(1.0978042637273682,-0.050881266145679727),(1.0978042637273682,0.050881266145679727),(0.,0.050881266145679727)));
#205=IFCINDEXEDPOLYCURVE(#204,(IFCLINEINDEX((1,2,3,4,1))),$);
#206=IFCARBITRARYCLOSEDPROFILEDEF(.AREA.,$,#205);
#207=IFCCARTESIANPOINT((0.,0.,0.));
#208=IFCDIRECTION((0.,0.,1.));
#209=IFCDIRECTION((1.,0.,0.));
#210=IFCAXIS2PLACEMENT3D(#207,#208,#209);
#211=IFCDIRECTION((0.,0.,1.));
#212=IFCEXTRUDEDAREASOLID(#206,#210,#211,3.048);
#213=IFCSHAPEREPRESENTATION(#11,'Body','SweptSolid',(#212));
#214=IFCPRODUCTDEFINITIONSHAPE($,$,(#213));
#215=IFCCARTESIANPOINT((0.050881462203301496,3.0405478654769302,0.));
#216=IFCDIRECTION((0.,0.,1.));
#217=IFCDIRECTION((1.,0.,0.));
#218=IFCAXIS2PLACEMENT3D(#215,#216,#217);
#219=IFCLOCALPLACEMENT($,#218);
#220=IFCPROPERTYSET('3TKTjS$qL4URuoKPRpJsPB',$,'ArchiAgent_Provenance',$,(#222,#223,#224,#225));
#221=IFCRELDEFINESBYPROPERTIES('36z$9SpgPFiwtxCgx6aq5r',$,$,$,(#203),#220);
#222=IFCPROPERTYSINGLEVALUE('SourceLayer',$,IFCLABEL('wall'),$);
#223=IFCPROPERTYSINGLEVALUE('Detector',$,IFCLABEL('paired-line'),$);
#224=IFCPROPERTYSINGLEVALUE('ThicknessIn',$,IFCREAL(4.0099999999999998),$);
#225=IFCPROPERTYSINGLEVALUE('ScalePtPerFt',$,IFCREAL(11.861000000000001),$);
#226=IFCWALL('0_GWr_Yoj0HgfDv1jWsz$d',$,'W010',$,$,#242,#237,$,$);
#227=IFCCARTESIANPOINTLIST2D(((0.,-0.050881266145679727),(3.7035472988549651,-0.050881266145679727),(3.7035472988549651,0.050881266145679727),(0.,0.050881266145679727)));
#228=IFCINDEXEDPOLYCURVE(#227,(IFCLINEINDEX((1,2,3,4,1))),$);
#229=IFCARBITRARYCLOSEDPROFILEDEF(.AREA.,$,#228);
#230=IFCCARTESIANPOINT((0.,0.,0.));
#231=IFCDIRECTION((0.,0.,1.));
#232=IFCDIRECTION((1.,0.,0.));
#233=IFCAXIS2PLACEMENT3D(#230,#231,#232);
#234=IFCDIRECTION((0.,0.,1.));
#235=IFCEXTRUDEDAREASOLID(#229,#233,#234,3.048);
#236=IFCSHAPEREPRESENTATION(#11,'Body','SweptSolid',(#235));
#237=IFCPRODUCTDEFINITIONSHAPE($,$,(#236));
#238=IFCCARTESIANPOINT((5.6447489074084389,3.0405478654769302,0.));
#239=IFCDIRECTION((0.,0.,1.));
#240=IFCDIRECTION((1.,0.,0.));
#241=IFCAXIS2PLACEMENT3D(#238,#239,#240);
#242=IFCLOCALPLACEMENT($,#241);
#243=IFCPROPERTYSET('1uYfi5ByP84wCWZYIgp8Kg',$,'ArchiAgent_Provenance',$,(#245,#246,#247,#248));
#244=IFCRELDEFINESBYPROPERTIES('15hHOroyfBOgjjJCxMf2iR',$,$,$,(#226),#243);
#245=IFCPROPERTYSINGLEVALUE('SourceLayer',$,IFCLABEL('wall'),$);
#246=IFCPROPERTYSINGLEVALUE('Detector',$,IFCLABEL('paired-line'),$);
#247=IFCPROPERTYSINGLEVALUE('ThicknessIn',$,IFCREAL(4.0099999999999998),$);
#248=IFCPROPERTYSINGLEVALUE('ScalePtPerFt',$,IFCREAL(11.861000000000001),$);
#249=IFCWALL('2ExMbl1U1DUAy8bZ42Fwul',$,'W011',$,$,#265,#260,$,$);
#250=IFCCARTESIANPOINTLIST2D(((0.,-0.052423455399392305),(2.6859204074803986,-0.052423455399392305),(2.6859204074803986,0.052423455399392305),(0.,0.052423455399392305)));
#251=IFCINDEXEDPOLYCURVE(#250,(IFCLINEINDEX((1,2,3,4,1))),$);
#252=IFCARBITRARYCLOSEDPROFILEDEF(.AREA.,$,#251);
#253=IFCCARTESIANPOINT((0.,0.,0.));
#254=IFCDIRECTION((0.,0.,1.));
#255=IFCDIRECTION((1.,0.,0.));
#256=IFCAXIS2PLACEMENT3D(#253,#254,#255);
#257=IFCDIRECTION((0.,0.,1.));
#258=IFCEXTRUDEDAREASOLID(#252,#256,#257,3.048);
#259=IFCSHAPEREPRESENTATION(#11,'Body','SweptSolid',(#258));
#260=IFCPRODUCTDEFINITIONSHAPE($,$,(#259));
#261=IFCCARTESIANPOINT((10.698965395695945,6.0363816533620556,0.));
#262=IFCDIRECTION((0.,0.,1.));
#263=IFCDIRECTION((1.,0.,0.));
#264=IFCAXIS2PLACEMENT3D(#261,#262,#263);
#265=IFCLOCALPLACEMENT($,#264);
#266=IFCPROPERTYSET('0fpttH3OH1WBYFuDGR4tcK',$,'ArchiAgent_Provenance',$,(#268,#269,#270,#271));
#267=IFCRELDEFINESBYPROPERTIES('1RJ3jy9i95E9RwiFKK7Bor',$,$,$,(#249),#266);
#268=IFCPROPERTYSINGLEVALUE('SourceLayer',$,IFCLABEL('wall'),$);
#269=IFCPROPERTYSINGLEVALUE('Detector',$,IFCLABEL('paired-line'),$);
#270=IFCPROPERTYSINGLEVALUE('ThicknessIn',$,IFCREAL(4.1299999999999999),$);
#271=IFCPROPERTYSINGLEVALUE('ScalePtPerFt',$,IFCREAL(11.861000000000001),$);
#272=IFCWALL('2Z8zhMeE1CIPdIxgGFk4D0',$,'W012',$,$,#288,#283,$,$);
#273=IFCCARTESIANPOINTLIST2D(((0.,-0.052423455399392305),(2.6859204074803986,-0.052423455399392305),(2.6859204074803986,0.052423455399392305),(0.,0.052423455399392305)));
#274=IFCINDEXEDPOLYCURVE(#273,(IFCLINEINDEX((1,2,3,4,1))),$);
#275=IFCARBITRARYCLOSEDPROFILEDEF(.AREA.,$,#274);
#276=IFCCARTESIANPOINT((0.,0.,0.));
#277=IFCDIRECTION((0.,0.,1.));
#278=IFCDIRECTION((1.,0.,0.));
#279=IFCAXIS2PLACEMENT3D(#276,#277,#278);
#280=IFCDIRECTION((0.,0.,1.));
#281=IFCEXTRUDEDAREASOLID(#275,#279,#280,3.048);
#282=IFCSHAPEREPRESENTATION(#11,'Body','SweptSolid',(#281));
#283=IFCPRODUCTDEFINITIONSHAPE($,$,(#282));
#284=IFCCARTESIANPOINT((10.698965395695945,6.0363816533620556,0.));
#285=IFCDIRECTION((0.,0.,1.));
#286=IFCDIRECTION((1.,0.,0.));
#287=IFCAXIS2PLACEMENT3D(#284,#285,#286);
#288=IFCLOCALPLACEMENT($,#287);
#289=IFCPROPERTYSET('3_gxs6D051ABYunEbjdp03',$,'ArchiAgent_Provenance',$,(#291,#292,#293,#294));
#290=IFCRELDEFINESBYPROPERTIES('1P$6qExHH8BAJo7DYXuFpG',$,$,$,(#272),#289);
#291=IFCPROPERTYSINGLEVALUE('SourceLayer',$,IFCLABEL('wall'),$);
#292=IFCPROPERTYSINGLEVALUE('Detector',$,IFCLABEL('paired-line'),$);
#293=IFCPROPERTYSINGLEVALUE('ThicknessIn',$,IFCREAL(4.1299999999999999),$);
#294=IFCPROPERTYSINGLEVALUE('ScalePtPerFt',$,IFCREAL(11.861000000000001),$);
#295=IFCWALL('0ZoQwRQCHCChizqUkWfFyu',$,'W013',$,$,#311,#306,$,$);
#296=IFCCARTESIANPOINTLIST2D(((0.,-0.052423455399391763),(3.9564126166753835,-0.052423455399391763),(3.9564126166753835,0.052423455399391763),(0.,0.052423455399391763)));
#297=IFCINDEXEDPOLYCURVE(#296,(IFCLINEINDEX((1,2,3,4,1))),$);
#298=IFCARBITRARYCLOSEDPROFILEDEF(.AREA.,$,#297);
#299=IFCCARTESIANPOINT((0.,0.,0.));
#300=IFCDIRECTION((0.,0.,1.));
#301=IFCDIRECTION((1.,0.,0.));
#302=IFCAXIS2PLACEMENT3D(#299,#300,#301);
#303=IFCDIRECTION((0.,0.,1.));
#304=IFCEXTRUDEDAREASOLID(#298,#302,#303,3.048);
#305=IFCSHAPEREPRESENTATION(#11,'Body','SweptSolid',(#304));
#306=IFCPRODUCTDEFINITIONSHAPE($,$,(#305));
#307=IFCCARTESIANPOINT((1.355294776905569,6.3231676845745106,0.));
#308=IFCDIRECTION((0.,0.,1.));
#309=IFCDIRECTION((1.,0.,0.));
#310=IFCAXIS2PLACEMENT3D(#307,#308,#309);
#311=IFCLOCALPLACEMENT($,#310);
#312=IFCPROPERTYSET('3WMjFtgpH5nRFuDwOPYct_',$,'ArchiAgent_Provenance',$,(#314,#315,#316,#317));
#313=IFCRELDEFINESBYPROPERTIES('1bp$G8SnHCLv$5$nN47dZO',$,$,$,(#295),#312);
#314=IFCPROPERTYSINGLEVALUE('SourceLayer',$,IFCLABEL('wall'),$);
#315=IFCPROPERTYSINGLEVALUE('Detector',$,IFCLABEL('paired-line'),$);
#316=IFCPROPERTYSINGLEVALUE('ThicknessIn',$,IFCREAL(4.1299999999999999),$);
#317=IFCPROPERTYSINGLEVALUE('ScalePtPerFt',$,IFCREAL(11.861000000000001),$);
#318=IFCWALL('3_JrwQgnfBAAZAUh2gkBnL',$,'W014',$,$,#334,#329,$,$);
#319=IFCCARTESIANPOINTLIST2D(((0.,-0.050881658260923265),(1.0978042637273682,-0.050881658260923265),(1.0978042637273682,0.050881658260923265),(0.,0.050881658260923265)));
#320=IFCINDEXEDPOLYCURVE(#319,(IFCLINEINDEX((1,2,3,4,1))),$);
#321=IFCARBITRARYCLOSEDPROFILEDEF(.AREA.,$,#320);
#322=IFCCARTESIANPOINT((0.,0.,0.));
#323=IFCDIRECTION((0.,0.,1.));
#324=IFCDIRECTION((1.,0.,0.));
#325=IFCAXIS2PLACEMENT3D(#322,#323,#324);
#326=IFCDIRECTION((0.,0.,1.));
#327=IFCEXTRUDEDAREASOLID(#321,#325,#326,3.048);
#328=IFCSHAPEREPRESENTATION(#11,'Body','SweptSolid',(#327));
#329=IFCPRODUCTDEFINITIONSHAPE($,$,(#328));
#330=IFCCARTESIANPOINT((0.050881462203301496,6.5405697076339342,0.));
#331=IFCDIRECTION((0.,0.,1.));
#332=IFCDIRECTION((1.,0.,0.));
#333=IFCAXIS2PLACEMENT3D(#330,#331,#332);
#334=IFCLOCALPLACEMENT($,#333);
#335=IFCPROPERTYSET('2YndrwHBD3vBlkXVl1Zxc6',$,'ArchiAgent_Provenance',$,(#337,#338,#339,#340));
#336=IFCRELDEFINESBYPROPERTIES('1lFc1jqyD3Hh14zNvmOYYq',$,$,$,(#318),#335);
#337=IFCPROPERTYSINGLEVALUE('SourceLayer',$,IFCLABEL('wall'),$);
#338=IFCPROPERTYSINGLEVALUE('Detector',$,IFCLABEL('paired-line'),$);
#339=IFCPROPERTYSINGLEVALUE('ThicknessIn',$,IFCREAL(4.0099999999999998),$);
#340=IFCPROPERTYSINGLEVALUE('ScalePtPerFt',$,IFCREAL(11.861000000000001),$);
#341=IFCWALL('0HwB4xly1F_vnoimYCM0g0',$,'W015',$,$,#357,#352,$,$);
#342=IFCCARTESIANPOINTLIST2D(((0.,-0.050881266145679727),(0.45947436879531611,-0.050881266145679727),(0.45947436879531611,0.050881266145679727),(0.,0.050881266145679727)));
#343=IFCINDEXEDPOLYCURVE(#342,(IFCLINEINDEX((1,2,3,4,1))),$);
#344=IFCARBITRARYCLOSEDPROFILEDEF(.AREA.,$,#343);
#345=IFCCARTESIANPOINT((0.,0.,0.));
#346=IFCDIRECTION((0.,0.,1.));
#347=IFCDIRECTION((1.,0.,0.));
#348=IFCAXIS2PLACEMENT3D(#345,#346,#347);
#349=IFCDIRECTION((0.,0.,1.));
#350=IFCEXTRUDEDAREASOLID(#344,#348,#349,3.048);
#351=IFCSHAPEREPRESENTATION(#11,'Body','SweptSolid',(#350));
#352=IFCPRODUCTDEFINITIONSHAPE($,$,(#351));
#353=IFCCARTESIANPOINT((6.329334284955519,8.3476292794696114,0.));
#354=IFCDIRECTION((0.,0.,1.));
#355=IFCDIRECTION((1.,0.,0.));
#356=IFCAXIS2PLACEMENT3D(#353,#354,#355);
#357=IFCLOCALPLACEMENT($,#356);
#358=IFCPROPERTYSET('2Zx_xm$Q55SOrWeC4Dsbac',$,'ArchiAgent_Provenance',$,(#360,#361,#362,#363));
#359=IFCRELDEFINESBYPROPERTIES('2qQApnIwT909weONqq$YcU',$,$,$,(#341),#358);
#360=IFCPROPERTYSINGLEVALUE('SourceLayer',$,IFCLABEL('wall'),$);
#361=IFCPROPERTYSINGLEVALUE('Detector',$,IFCLABEL('paired-line'),$);
#362=IFCPROPERTYSINGLEVALUE('ThicknessIn',$,IFCREAL(4.0099999999999998),$);
#363=IFCPROPERTYSINGLEVALUE('ScalePtPerFt',$,IFCREAL(11.861000000000001),$);
#364=IFCWALL('3SNSxi7xLFmx23BAE22AMh',$,'W016',$,$,#380,#375,$,$);
#365=IFCCARTESIANPOINTLIST2D(((0.,-0.050881266145679727),(0.61674395076300492,-0.050881266145679727),(0.61674395076300492,0.050881266145679727),(0.,0.050881266145679727)));
#366=IFCINDEXEDPOLYCURVE(#365,(IFCLINEINDEX((1,2,3,4,1))),$);
#367=IFCARBITRARYCLOSEDPROFILEDEF(.AREA.,$,#366);
#368=IFCCARTESIANPOINT((0.,0.,0.));
#369=IFCDIRECTION((0.,0.,1.));
#370=IFCDIRECTION((1.,0.,0.));
#371=IFCAXIS2PLACEMENT3D(#368,#369,#370);
#372=IFCDIRECTION((0.,0.,1.));
#373=IFCEXTRUDEDAREASOLID(#367,#371,#372,3.048);
#374=IFCSHAPEREPRESENTATION(#11,'Body','SweptSolid',(#373));
#375=IFCPRODUCTDEFINITIONSHAPE($,$,(#374));
#376=IFCCARTESIANPOINT((6.8905719702726813,8.3476292794696114,0.));
#377=IFCDIRECTION((0.,0.,1.));
#378=IFCDIRECTION((1.,0.,0.));
#379=IFCAXIS2PLACEMENT3D(#376,#377,#378);
#380=IFCLOCALPLACEMENT($,#379);
#381=IFCPROPERTYSET('0Ozg732bP8IQf4prv$Vr5u',$,'ArchiAgent_Provenance',$,(#383,#384,#385,#386));
#382=IFCRELDEFINESBYPROPERTIES('1LFoC7xJz52fNA8EhtXBHL',$,$,$,(#364),#381);
#383=IFCPROPERTYSINGLEVALUE('SourceLayer',$,IFCLABEL('wall'),$);
#384=IFCPROPERTYSINGLEVALUE('Detector',$,IFCLABEL('paired-line'),$);
#385=IFCPROPERTYSINGLEVALUE('ThicknessIn',$,IFCREAL(4.0099999999999998),$);
#386=IFCPROPERTYSINGLEVALUE('ScalePtPerFt',$,IFCREAL(11.861000000000001),$);
#387=IFCWALL('1szxAgrNn2MRXmmgpuBbYJ',$,'W017',$,$,#403,#398,$,$);
#388=IFCCARTESIANPOINTLIST2D(((0.,-0.050881658260923265),(2.0352553512101115,-0.050881658260923265),(2.0352553512101115,0.050881658260923265),(0.,0.050881658260923265)));
#389=IFCINDEXEDPOLYCURVE(#388,(IFCLINEINDEX((1,2,3,4,1))),$);
#390=IFCARBITRARYCLOSEDPROFILEDEF(.AREA.,$,#389);
#391=IFCCARTESIANPOINT((0.,0.,0.));
#392=IFCDIRECTION((0.,0.,1.));
#393=IFCDIRECTION((1.,0.,0.));
#394=IFCAXIS2PLACEMENT3D(#391,#392,#393);
#395=IFCDIRECTION((0.,0.,1.));
#396=IFCEXTRUDEDAREASOLID(#390,#394,#395,3.048);
#397=IFCSHAPEREPRESENTATION(#11,'Body','SweptSolid',(#396));
#398=IFCPRODUCTDEFINITIONSHAPE($,$,(#397));
#399=IFCCARTESIANPOINT((9.6350814532453715,9.6612941612331777,0.));
#400=IFCDIRECTION((0.,0.,1.));
#401=IFCDIRECTION((1.,0.,0.));
#402=IFCAXIS2PLACEMENT3D(#399,#400,#401);
#403=IFCLOCALPLACEMENT($,#402);
#404=IFCPROPERTYSET('2p0Wr_n7rBixSWMZEkjet5',$,'ArchiAgent_Provenance',$,(#406,#407,#408,#409));
#405=IFCRELDEFINESBYPROPERTIES('3b5c7$MRfA7OzjCKprABug',$,$,$,(#387),#404);
#406=IFCPROPERTYSINGLEVALUE('SourceLayer',$,IFCLABEL('wall'),$);
#407=IFCPROPERTYSINGLEVALUE('Detector',$,IFCLABEL('paired-line'),$);
#408=IFCPROPERTYSINGLEVALUE('ThicknessIn',$,IFCREAL(4.0099999999999998),$);
#409=IFCPROPERTYSINGLEVALUE('ScalePtPerFt',$,IFCREAL(11.861000000000001),$);
#410=IFCWALL('0l4C_oJavF6h_snDrOuz4o',$,'W018',$,$,#426,#421,$,$);
#411=IFCCARTESIANPOINTLIST2D(((0.,-0.050881658260923265),(0.45947436879531611,-0.050881658260923265),(0.45947436879531611,0.050881658260923265),(0.,0.050881658260923265)));
#412=IFCINDEXEDPOLYCURVE(#411,(IFCLINEINDEX((1,2,3,4,1))),$);
#413=IFCARBITRARYCLOSEDPROFILEDEF(.AREA.,$,#412);
#414=IFCCARTESIANPOINT((0.,0.,0.));
#415=IFCDIRECTION((0.,0.,1.));
#416=IFCDIRECTION((1.,0.,0.));
#417=IFCAXIS2PLACEMENT3D(#414,#415,#416);
#418=IFCDIRECTION((0.,0.,1.));
#419=IFCEXTRUDEDAREASOLID(#413,#417,#418,3.048);
#420=IFCSHAPEREPRESENTATION(#11,'Body','SweptSolid',(#419));
#421=IFCPRODUCTDEFINITIONSHAPE($,$,(#420));
#422=IFCCARTESIANPOINT((2.7953917294064783,10.222531062319854,0.));
#423=IFCDIRECTION((0.,0.,1.));
#424=IFCDIRECTION((1.,0.,0.));
#425=IFCAXIS2PLACEMENT3D(#422,#423,#424);
#426=IFCLOCALPLACEMENT($,#425);
#427=IFCPROPERTYSET('3OcfpmG0DAquR4uIV_LVNp',$,'ArchiAgent_Provenance',$,(#429,#430,#431,#432));
#428=IFCRELDEFINESBYPROPERTIES('3uT1P0ZQD1sQlZBHrqXIwd',$,$,$,(#410),#427);
#429=IFCPROPERTYSINGLEVALUE('SourceLayer',$,IFCLABEL('wall'),$);
#430=IFCPROPERTYSINGLEVALUE('Detector',$,IFCLABEL('paired-line'),$);
#431=IFCPROPERTYSINGLEVALUE('ThicknessIn',$,IFCREAL(4.0099999999999998),$);
#432=IFCPROPERTYSINGLEVALUE('ScalePtPerFt',$,IFCREAL(11.861000000000001),$);
#433=IFCWALL('2ykcpQuQP3P8deosGoNdW3',$,'W019',$,$,#449,#444,$,$);
#434=IFCCARTESIANPOINTLIST2D(((0.,-0.050881658260923265),(0.64141388132423249,-0.050881658260923265),(0.64141388132423249,0.050881658260923265),(0.,0.050881658260923265)));
#435=IFCINDEXEDPOLYCURVE(#434,(IFCLINEINDEX((1,2,3,4,1))),$);
#436=IFCARBITRARYCLOSEDPROFILEDEF(.AREA.,$,#435);
#437=IFCCARTESIANPOINT((0.,0.,0.));
#438=IFCDIRECTION((0.,0.,1.));
#439=IFCDIRECTION((1.,0.,0.));
#440=IFCAXIS2PLACEMENT3D(#437,#438,#439);
#441=IFCDIRECTION((0.,0.,1.));
#442=IFCEXTRUDEDAREASOLID(#436,#440,#441,3.048);
#443=IFCSHAPEREPRESENTATION(#11,'Body','SweptSolid',(#442));
#444=IFCPRODUCTDEFINITIONSHAPE($,$,(#443));
#445=IFCCARTESIANPOINT((1.355294776905569,10.222531062319854,0.));
#446=IFCDIRECTION((0.,0.,1.));
#447=IFCDIRECTION((1.,0.,0.));
#448=IFCAXIS2PLACEMENT3D(#445,#446,#447);
#449=IFCLOCALPLACEMENT($,#448);
#450=IFCPROPERTYSET('298vr_Etv9$O1NycBLTrLr',$,'ArchiAgent_Provenance',$,(#452,#453,#454,#455));
#451=IFCRELDEFINESBYPROPERTIES('0BolG0Sl95hO2VA4xR7fXL',$,$,$,(#433),#450);
#452=IFCPROPERTYSINGLEVALUE('SourceLayer',$,IFCLABEL('wall'),$);
#453=IFCPROPERTYSINGLEVALUE('Detector',$,IFCLABEL('paired-line'),$);
#454=IFCPROPERTYSINGLEVALUE('ThicknessIn',$,IFCREAL(4.0099999999999998),$);
#455=IFCPROPERTYSINGLEVALUE('ScalePtPerFt',$,IFCREAL(11.861000000000001),$);
#456=IFCWALL('0WMWScJh1D8Bwdz$yTH4HP',$,'W020',$,$,#472,#467,$,$);
#457=IFCCARTESIANPOINTLIST2D(((0.,-0.050880874030435105),(0.47797671868742514,-0.050880874030435105),(0.47797671868742514,0.050880874030435105),(0.,0.050880874030435105)));
#458=IFCINDEXEDPOLYCURVE(#457,(IFCLINEINDEX((1,2,3,4,1))),$);
#459=IFCARBITRARYCLOSEDPROFILEDEF(.AREA.,$,#458);
#460=IFCCARTESIANPOINT((0.,0.,0.));
#461=IFCDIRECTION((0.,0.,1.));
#462=IFCDIRECTION((1.,0.,0.));
#463=IFCAXIS2PLACEMENT3D(#460,#461,#462);
#464=IFCDIRECTION((0.,0.,1.));
#465=IFCEXTRUDEDAREASOLID(#459,#463,#464,3.048);
#466=IFCSHAPEREPRESENTATION(#11,'Body','SweptSolid',(#465));
#467=IFCPRODUCTDEFINITIONSHAPE($,$,(#466));
#468=IFCCARTESIANPOINT((5.6447489074084389,11.147646988464363,0.));
#469=IFCDIRECTION((0.,0.,1.));
#470=IFCDIRECTION((1.,0.,0.));
#471=IFCAXIS2PLACEMENT3D(#468,#469,#470);
#472=IFCLOCALPLACEMENT($,#471);
#473=IFCPROPERTYSET('1f4sSp9zn3MBMKWtzAJdbJ',$,'ArchiAgent_Provenance',$,(#475,#476,#477,#478));
#474=IFCRELDEFINESBYPROPERTIES('1ArReBo_5DJBYF3hWOk7em',$,$,$,(#456),#473);
#475=IFCPROPERTYSINGLEVALUE('SourceLayer',$,IFCLABEL('wall'),$);
#476=IFCPROPERTYSINGLEVALUE('Detector',$,IFCLABEL('paired-line'),$);
#477=IFCPROPERTYSINGLEVALUE('ThicknessIn',$,IFCREAL(4.0099999999999998),$);
#478=IFCPROPERTYSINGLEVALUE('ScalePtPerFt',$,IFCREAL(11.861000000000001),$);
#479=IFCWALL('2Ll_ZaG1bFTQIbKXq9TyzT',$,'W021',$,$,#495,#490,$,$);
#480=IFCCARTESIANPOINTLIST2D(((0.,-0.050880874030435105),(4.0581751489667433,-0.050880874030435105),(4.0581751489667433,0.050880874030435105),(0.,0.050880874030435105)));
#481=IFCINDEXEDPOLYCURVE(#480,(IFCLINEINDEX((1,2,3,4,1))),$);
#482=IFCARBITRARYCLOSEDPROFILEDEF(.AREA.,$,#481);
#483=IFCCARTESIANPOINT((0.,0.,0.));
#484=IFCDIRECTION((0.,0.,1.));
#485=IFCDIRECTION((1.,0.,0.));
#486=IFCAXIS2PLACEMENT3D(#483,#484,#485);
#487=IFCDIRECTION((0.,0.,1.));
#488=IFCEXTRUDEDAREASOLID(#482,#486,#487,3.048);
#489=IFCSHAPEREPRESENTATION(#11,'Body','SweptSolid',(#488));
#490=IFCPRODUCTDEFINITIONSHAPE($,$,(#489));
#491=IFCCARTESIANPOINT((1.2535322446142096,11.147646988464363,0.));
#492=IFCDIRECTION((0.,0.,1.));
#493=IFCDIRECTION((1.,0.,0.));
#494=IFCAXIS2PLACEMENT3D(#491,#492,#493);
#495=IFCLOCALPLACEMENT($,#494);
#496=IFCPROPERTYSET('06coEtep9BPuisyxAjqlBZ',$,'ArchiAgent_Provenance',$,(#498,#499,#500,#501));
#497=IFCRELDEFINESBYPROPERTIES('0oj9zOpBb2tfzvMESW_wGE',$,$,$,(#479),#496);
#498=IFCPROPERTYSINGLEVALUE('SourceLayer',$,IFCLABEL('wall'),$);
#499=IFCPROPERTYSINGLEVALUE('Detector',$,IFCLABEL('paired-line'),$);
#500=IFCPROPERTYSINGLEVALUE('ThicknessIn',$,IFCREAL(4.0099999999999998),$);
#501=IFCPROPERTYSINGLEVALUE('ScalePtPerFt',$,IFCREAL(11.861000000000001),$);
#502=IFCWALL('3eQkhrzED1kAcLhXLiMotP',$,'W022',$,$,#518,#513,$,$);
#503=IFCCARTESIANPOINTLIST2D(((0.,-0.050880874030435105),(1.1317245850041633,-0.050880874030435105),(1.1317245850041633,0.050880874030435105),(0.,0.050880874030435105)));
#504=IFCINDEXEDPOLYCURVE(#503,(IFCLINEINDEX((1,2,3,4,1))),$);
#505=IFCARBITRARYCLOSEDPROFILEDEF(.AREA.,$,#504);
#506=IFCCARTESIANPOINT((0.,0.,0.));
#507=IFCDIRECTION((0.,0.,1.));
#508=IFCDIRECTION((1.,0.,0.));
#509=IFCAXIS2PLACEMENT3D(#506,#507,#508);
#510=IFCDIRECTION((0.,0.,1.));
#511=IFCEXTRUDEDAREASOLID(#505,#509,#510,3.048);
#512=IFCSHAPEREPRESENTATION(#11,'Body','SweptSolid',(#511));
#513=IFCPRODUCTDEFINITIONSHAPE($,$,(#512));
#514=IFCCARTESIANPOINT((6.8905719702726813,11.147646988464363,0.));
#515=IFCDIRECTION((0.,0.,1.));
#516=IFCDIRECTION((1.,0.,0.));
#517=IFCAXIS2PLACEMENT3D(#514,#515,#516);
#518=IFCLOCALPLACEMENT($,#517);
#519=IFCPROPERTYSET('2tAW8dzEnBDxhdIhfVelrp',$,'ArchiAgent_Provenance',$,(#521,#522,#523,#524));
#520=IFCRELDEFINESBYPROPERTIES('2h9CssEAj6rxzbbGx_u$O0',$,$,$,(#502),#519);
#521=IFCPROPERTYSINGLEVALUE('SourceLayer',$,IFCLABEL('wall'),$);
#522=IFCPROPERTYSINGLEVALUE('Detector',$,IFCLABEL('paired-line'),$);
#523=IFCPROPERTYSINGLEVALUE('ThicknessIn',$,IFCREAL(4.0099999999999998),$);
#524=IFCPROPERTYSINGLEVALUE('ScalePtPerFt',$,IFCREAL(11.861000000000001),$);
#525=IFCWALL('3ZlG$GXH99MfWpvik2nIgM',$,'W023',$,$,#541,#536,$,$);
#526=IFCCARTESIANPOINTLIST2D(((0.,-0.050880874030435105),(0.6414142734394771,-0.050880874030435105),(0.6414142734394771,0.050880874030435105),(0.,0.050880874030435105)));
#527=IFCINDEXEDPOLYCURVE(#526,(IFCLINEINDEX((1,2,3,4,1))),$);
#528=IFCARBITRARYCLOSEDPROFILEDEF(.AREA.,$,#527);
#529=IFCCARTESIANPOINT((0.,0.,0.));
#530=IFCDIRECTION((0.,0.,1.));
#531=IFCDIRECTION((1.,0.,0.));
#532=IFCAXIS2PLACEMENT3D(#529,#530,#531);
#533=IFCDIRECTION((0.,0.,1.));
#534=IFCEXTRUDEDAREASOLID(#528,#532,#533,3.048);
#535=IFCSHAPEREPRESENTATION(#11,'Body','SweptSolid',(#534));
#536=IFCPRODUCTDEFINITIONSHAPE($,$,(#535));
#537=IFCCARTESIANPOINT((9.6350814532453715,11.147646988464363,0.));
#538=IFCDIRECTION((0.,0.,1.));
#539=IFCDIRECTION((1.,0.,0.));
#540=IFCAXIS2PLACEMENT3D(#537,#538,#539);
#541=IFCLOCALPLACEMENT($,#540);
#542=IFCPROPERTYSET('1Pi6iwiSv9MQ2ZEbUIbJAI',$,'ArchiAgent_Provenance',$,(#544,#545,#546,#547));
#543=IFCRELDEFINESBYPROPERTIES('0JggEu$TH7R9iLPZRE4dAu',$,$,$,(#525),#542);
#544=IFCPROPERTYSINGLEVALUE('SourceLayer',$,IFCLABEL('wall'),$);
#545=IFCPROPERTYSINGLEVALUE('Detector',$,IFCLABEL('paired-line'),$);
#546=IFCPROPERTYSINGLEVALUE('ThicknessIn',$,IFCREAL(4.0099999999999998),$);
#547=IFCPROPERTYSINGLEVALUE('ScalePtPerFt',$,IFCREAL(11.861000000000001),$);
#548=IFCWALL('3GzJA_901DzRyP7xSBJb6r',$,'W024',$,$,#564,#559,$,$);
#549=IFCCARTESIANPOINTLIST2D(((0.,-0.050880874030435105),(0.81410339525282394,-0.050880874030435105),(0.81410339525282394,0.050880874030435105),(0.,0.050880874030435105)));
#550=IFCINDEXEDPOLYCURVE(#549,(IFCLINEINDEX((1,2,3,4,1))),$);
#551=IFCARBITRARYCLOSEDPROFILEDEF(.AREA.,$,#550);
#552=IFCCARTESIANPOINT((0.,0.,0.));
#553=IFCDIRECTION((0.,0.,1.));
#554=IFCDIRECTION((1.,0.,0.));
#555=IFCAXIS2PLACEMENT3D(#552,#553,#554);
#556=IFCDIRECTION((0.,0.,1.));
#557=IFCEXTRUDEDAREASOLID(#551,#555,#556,3.048);
#558=IFCSHAPEREPRESENTATION(#11,'Body','SweptSolid',(#557));
#559=IFCPRODUCTDEFINITIONSHAPE($,$,(#558));
#560=IFCCARTESIANPOINT((10.754471661141787,11.147646988464363,0.));
#561=IFCDIRECTION((0.,0.,1.));
#562=IFCDIRECTION((1.,0.,0.));
#563=IFCAXIS2PLACEMENT3D(#560,#561,#562);
#564=IFCLOCALPLACEMENT($,#563);
#565=IFCPROPERTYSET('3forC2T0j6lQb3ZH3WSoH3',$,'ArchiAgent_Provenance',$,(#567,#568,#569,#570));
#566=IFCRELDEFINESBYPROPERTIES('1WJ7POSTbFrP4M5VmjkLfB',$,$,$,(#548),#565);
#567=IFCPROPERTYSINGLEVALUE('SourceLayer',$,IFCLABEL('wall'),$);
#568=IFCPROPERTYSINGLEVALUE('Detector',$,IFCLABEL('paired-line'),$);
#569=IFCPROPERTYSINGLEVALUE('ThicknessIn',$,IFCREAL(4.0099999999999998),$);
#570=IFCPROPERTYSINGLEVALUE('ScalePtPerFt',$,IFCREAL(11.861000000000001),$);
#571=IFCWALL('2Xkhy6CKz0NRtg4l11gLKK',$,'W025',$,$,#587,#582,$,$);
#572=IFCCARTESIANPOINTLIST2D(((0.,-0.052422671168904145),(1.71454899872086,-0.052422671168904145),(1.71454899872086,0.052422671168904145),(0.,0.052422671168904145)));
#573=IFCINDEXEDPOLYCURVE(#572,(IFCLINEINDEX((1,2,3,4,1))),$);
#574=IFCARBITRARYCLOSEDPROFILEDEF(.AREA.,$,#573);
#575=IFCCARTESIANPOINT((0.,0.,0.));
#576=IFCDIRECTION((0.,0.,1.));
#577=IFCDIRECTION((1.,0.,0.));
#578=IFCAXIS2PLACEMENT3D(#575,#576,#577);
#579=IFCDIRECTION((0.,0.,1.));
#580=IFCEXTRUDEDAREASOLID(#574,#578,#579,3.048);
#581=IFCSHAPEREPRESENTATION(#11,'Body','SweptSolid',(#580));
#582=IFCPRODUCTDEFINITIONSHAPE($,$,(#581));
#583=IFCCARTESIANPOINT((11.670336804455482,12.074304711747336,0.));
#584=IFCDIRECTION((0.,0.,1.));
#585=IFCDIRECTION((1.,0.,0.));
#586=IFCAXIS2PLACEMENT3D(#583,#584,#585);
#587=IFCLOCALPLACEMENT($,#586);
#588=IFCPROPERTYSET('06e_CiBGv9NAF8323mMsuo',$,'ArchiAgent_Provenance',$,(#590,#591,#592,#593));
#589=IFCRELDEFINESBYPROPERTIES('3xWZYBDUv82AFNxaUUj2HS',$,$,$,(#571),#588);
#590=IFCPROPERTYSINGLEVALUE('SourceLayer',$,IFCLABEL('wall'),$);
#591=IFCPROPERTYSINGLEVALUE('Detector',$,IFCLABEL('paired-line'),$);
#592=IFCPROPERTYSINGLEVALUE('ThicknessIn',$,IFCREAL(4.1299999999999999),$);
#593=IFCPROPERTYSINGLEVALUE('ScalePtPerFt',$,IFCREAL(11.861000000000001),$);
#594=IFCWALL('0zHtdx4Yb0tAyYv0NjxfuH',$,'W026',$,$,#610,#605,$,$);
#595=IFCCARTESIANPOINTLIST2D(((0.,-0.050881462203301496),(3.3982589177504008,-0.050881462203301496),(3.3982589177504008,0.050881462203301496),(0.,0.050881462203301496)));
#596=IFCINDEXEDPOLYCURVE(#595,(IFCLINEINDEX((1,2,3,4,1))),$);
#597=IFCARBITRARYCLOSEDPROFILEDEF(.AREA.,$,#596);
#598=IFCCARTESIANPOINT((0.,0.,0.));
#599=IFCDIRECTION((0.,0.,1.));
#600=IFCDIRECTION((1.,0.,0.));
#601=IFCAXIS2PLACEMENT3D(#598,#599,#600);
#602=IFCDIRECTION((0.,0.,1.));
#603=IFCEXTRUDEDAREASOLID(#597,#601,#602,3.048);
#604=IFCSHAPEREPRESENTATION(#11,'Body','SweptSolid',(#603));
#605=IFCPRODUCTDEFINITIONSHAPE($,$,(#604));
#606=IFCCARTESIANPOINT((0.,3.0914291316226099,0.));
#607=IFCDIRECTION((0.,0.,1.));
#608=IFCDIRECTION((6.123233995736766E-17,1.,0.));
#609=IFCAXIS2PLACEMENT3D(#606,#607,#608);
#610=IFCLOCALPLACEMENT($,#609);
#611=IFCPROPERTYSET('13ppvje2vEpAFRvxlSBWWE',$,'ArchiAgent_Provenance',$,(#613,#614,#615,#616));
#612=IFCRELDEFINESBYPROPERTIES('0QxtQ8$sb2BvcN41iRq4Ho',$,$,$,(#594),#611);
#613=IFCPROPERTYSINGLEVALUE('SourceLayer',$,IFCLABEL('wall'),$);
#614=IFCPROPERTYSINGLEVALUE('Detector',$,IFCLABEL('paired-line'),$);
#615=IFCPROPERTYSINGLEVALUE('ThicknessIn',$,IFCREAL(4.0099999999999998),$);
#616=IFCPROPERTYSINGLEVALUE('ScalePtPerFt',$,IFCREAL(11.861000000000001),$);
#617=IFCWALL('340LoaAxr34e$owMM08ZSE',$,'W027',$,$,#633,#628,$,$);
#618=IFCCARTESIANPOINTLIST2D(((0.,-0.10330452548744973),(0.68458537754708215,-0.10330452548744973),(0.68458537754708215,0.10330452548744973),(0.,0.10330452548744973)));
#619=IFCINDEXEDPOLYCURVE(#618,(IFCLINEINDEX((1,2,3,4,1))),$);
#620=IFCARBITRARYCLOSEDPROFILEDEF(.AREA.,$,#619);
#621=IFCCARTESIANPOINT((0.,0.,0.));
#622=IFCDIRECTION((0.,0.,1.));
#623=IFCDIRECTION((1.,0.,0.));
#624=IFCAXIS2PLACEMENT3D(#621,#622,#623);
#625=IFCDIRECTION((0.,0.,1.));
#626=IFCEXTRUDEDAREASOLID(#620,#624,#625,3.048);
#627=IFCSHAPEREPRESENTATION(#11,'Body','SweptSolid',(#626));
#628=IFCPRODUCTDEFINITIONSHAPE($,$,(#627));
#629=IFCCARTESIANPOINT((1.2519902514181194,5.5861588516280376,0.));
#630=IFCDIRECTION((0.,0.,1.));
#631=IFCDIRECTION((6.123233995736766E-17,1.,0.));
#632=IFCAXIS2PLACEMENT3D(#629,#630,#631);
#633=IFCLOCALPLACEMENT($,#632);
#634=IFCPROPERTYSET('0P3B7ru69CM9JzA9kXjRK4',$,'ArchiAgent_Provenance',$,(#636,#637,#638,#639));
#635=IFCRELDEFINESBYPROPERTIES('3qQuPWijr7sB2Nz3LkU3XU',$,$,$,(#617),#634);
#636=IFCPROPERTYSINGLEVALUE('SourceLayer',$,IFCLABEL('wall'),$);
#637=IFCPROPERTYSINGLEVALUE('Detector',$,IFCLABEL('paired-line'),$);
#638=IFCPROPERTYSINGLEVALUE('ThicknessIn',$,IFCREAL(8.1300000000000008),$);
#639=IFCPROPERTYSINGLEVALUE('ScalePtPerFt',$,IFCREAL(11.861000000000001),$);
#640=IFCWALL('0woUeOCIPFGR9FPhMrNui8',$,'W028',$,$,#656,#651,$,$);
#641=IFCCARTESIANPOINTLIST2D(((0.,-0.052423259341769994),(0.82335339385315109,-0.052423259341769994),(0.82335339385315109,0.052423259341769994),(0.,0.052423259341769994)));
#642=IFCINDEXEDPOLYCURVE(#641,(IFCLINEINDEX((1,2,3,4,1))),$);
#643=IFCARBITRARYCLOSEDPROFILEDEF(.AREA.,$,#642);
#644=IFCCARTESIANPOINT((0.,0.,0.));
#645=IFCDIRECTION((0.,0.,1.));
#646=IFCDIRECTION((1.,0.,0.));
#647=IFCAXIS2PLACEMENT3D(#644,#645,#646);
#648=IFCDIRECTION((0.,0.,1.));
#649=IFCEXTRUDEDAREASOLID(#643,#647,#648,3.048);
#650=IFCSHAPEREPRESENTATION(#11,'Body','SweptSolid',(#649));
#651=IFCPRODUCTDEFINITIONSHAPE($,$,(#650));
#652=IFCCARTESIANPOINT((1.2011089852724397,10.273412720580776,0.));
#653=IFCDIRECTION((0.,0.,1.));
#654=IFCDIRECTION((6.123233995736766E-17,1.,0.));
#655=IFCAXIS2PLACEMENT3D(#652,#653,#654);
#656=IFCLOCALPLACEMENT($,#655);
#657=IFCPROPERTYSET('2QlCJcEJz7hOFuj7_CjImj',$,'ArchiAgent_Provenance',$,(#659,#660,#661,#662));
#658=IFCRELDEFINESBYPROPERTIES('0M0juO1NT0D9SKCIIEOL$Y',$,$,$,(#640),#657);
#659=IFCPROPERTYSINGLEVALUE('SourceLayer',$,IFCLABEL('wall'),$);
#660=IFCPROPERTYSINGLEVALUE('Detector',$,IFCLABEL('paired-line'),$);
#661=IFCPROPERTYSINGLEVALUE('ThicknessIn',$,IFCREAL(4.1299999999999999),$);
#662=IFCPROPERTYSINGLEVALUE('ScalePtPerFt',$,IFCREAL(11.861000000000001),$);
#663=IFCWALL('2GZ8nagw57fuuNpjqg8fLt',$,'W029',$,$,#679,#674,$,$);
#664=IFCCARTESIANPOINTLIST2D(((0.,-0.10330452548744973),(3.6819613546859182,-0.10330452548744973),(3.6819613546859182,0.10330452548744973),(0.,0.10330452548744973)));
#665=IFCINDEXEDPOLYCURVE(#664,(IFCLINEINDEX((1,2,3,4,1))),$);
#666=IFCARBITRARYCLOSEDPROFILEDEF(.AREA.,$,#665);
#667=IFCCARTESIANPOINT((0.,0.,0.));
#668=IFCDIRECTION((0.,0.,1.));
#669=IFCDIRECTION((1.,0.,0.));
#670=IFCAXIS2PLACEMENT3D(#667,#668,#669);
#671=IFCDIRECTION((0.,0.,1.));
#672=IFCEXTRUDEDAREASOLID(#666,#670,#671,3.048);
#673=IFCSHAPEREPRESENTATION(#11,'Body','SweptSolid',(#672));
#674=IFCPRODUCTDEFINITIONSHAPE($,$,(#673));
#675=IFCCARTESIANPOINT((1.2519902514181194,6.4896880493730107,0.));
#676=IFCDIRECTION((0.,0.,1.));
#677=IFCDIRECTION((6.123233995736766E-17,1.,0.));
#678=IFCAXIS2PLACEMENT3D(#675,#676,#677);
#679=IFCLOCALPLACEMENT($,#678);
#680=IFCPROPERTYSET('2gRW8nLnr3xeGcqX_tBryN',$,'ArchiAgent_Provenance',$,(#682,#683,#684,#685));
#681=IFCRELDEFINESBYPROPERTIES('2MTIuHRzbFNPKSiCngUtKR',$,$,$,(#663),#680);
#682=IFCPROPERTYSINGLEVALUE('SourceLayer',$,IFCLABEL('wall'),$);
#683=IFCPROPERTYSINGLEVALUE('Detector',$,IFCLABEL('paired-line'),$);
#684=IFCPROPERTYSINGLEVALUE('ThicknessIn',$,IFCREAL(8.1300000000000008),$);
#685=IFCPROPERTYSINGLEVALUE('ScalePtPerFt',$,IFCREAL(11.861000000000001),$);
#686=IFCWALL('0cVZKBy$D1EA50bwtucyF6',$,'W030',$,$,#702,#697,$,$);
#687=IFCCARTESIANPOINTLIST2D(((0.,-0.050881266145679185),(2.8370220166637243,-0.050881266145679185),(2.8370220166637243,0.050881266145679185),(0.,0.050881266145679185)));
#688=IFCINDEXEDPOLYCURVE(#687,(IFCLINEINDEX((1,2,3,4,1))),$);
#689=IFCARBITRARYCLOSEDPROFILEDEF(.AREA.,$,#688);
#690=IFCCARTESIANPOINT((0.,0.,0.));
#691=IFCDIRECTION((0.,0.,1.));
#692=IFCDIRECTION((1.,0.,0.));
#693=IFCAXIS2PLACEMENT3D(#690,#691,#692);
#694=IFCDIRECTION((0.,0.,1.));
#695=IFCEXTRUDEDAREASOLID(#689,#693,#694,3.048);
#696=IFCSHAPEREPRESENTATION(#11,'Body','SweptSolid',(#695));
#697=IFCPRODUCTDEFINITIONSHAPE($,$,(#696));
#698=IFCCARTESIANPOINT((1.5665296114111169,0.15264458266752626,0.));
#699=IFCDIRECTION((0.,0.,1.));
#700=IFCDIRECTION((6.123233995736766E-17,1.,0.));
#701=IFCAXIS2PLACEMENT3D(#698,#699,#700);
#702=IFCLOCALPLACEMENT($,#701);
#703=IFCPROPERTYSET('1Y9ukn7mbAWPhn7dzdvBr9',$,'ArchiAgent_Provenance',$,(#705,#706,#707,#708));
#704=IFCRELDEFINESBYPROPERTIES('2_ShrhRVn9AP2lSpZYS2OT',$,$,$,(#686),#703);
#705=IFCPROPERTYSINGLEVALUE('SourceLayer',$,IFCLABEL('wall'),$);
#706=IFCPROPERTYSINGLEVALUE('Detector',$,IFCLABEL('paired-line'),$);
#707=IFCPROPERTYSINGLEVALUE('ThicknessIn',$,IFCREAL(4.0099999999999998),$);
#708=IFCPROPERTYSINGLEVALUE('ScalePtPerFt',$,IFCREAL(11.861000000000001),$);
#709=IFCWALL('1h8LxMyqj3xPCJXosjbJUb',$,'W031',$,$,#725,#720,$,$);
#710=IFCCARTESIANPOINTLIST2D(((0.,-0.052423063284148225),(2.8370220166637243,-0.052423063284148225),(2.8370220166637243,0.052423063284148225),(0.,0.052423063284148225)));
#711=IFCINDEXEDPOLYCURVE(#710,(IFCLINEINDEX((1,2,3,4,1))),$);
#712=IFCARBITRARYCLOSEDPROFILEDEF(.AREA.,$,#711);
#713=IFCCARTESIANPOINT((0.,0.,0.));
#714=IFCDIRECTION((0.,0.,1.));
#715=IFCDIRECTION((1.,0.,0.));
#716=IFCAXIS2PLACEMENT3D(#713,#714,#715);
#717=IFCDIRECTION((0.,0.,1.));
#718=IFCEXTRUDEDAREASOLID(#712,#716,#717,3.048);
#719=IFCSHAPEREPRESENTATION(#11,'Body','SweptSolid',(#718));
#720=IFCPRODUCTDEFINITIONSHAPE($,$,(#719));
#721=IFCCARTESIANPOINT((4.0936378555548716,0.15264458266752626,0.));
#722=IFCDIRECTION((0.,0.,1.));
#723=IFCDIRECTION((6.123233995736766E-17,1.,0.));
#724=IFCAXIS2PLACEMENT3D(#721,#722,#723);
#725=IFCLOCALPLACEMENT($,#724);
#726=IFCPROPERTYSET('1UH8t2pXn4WQKKYG2nglhC',$,'ArchiAgent_Provenance',$,(#728,#729,#730,#731));
#727=IFCRELDEFINESBYPROPERTIES('2njGOjxirDK9QGtw8EjBHx',$,$,$,(#709),#726);
#728=IFCPROPERTYSINGLEVALUE('SourceLayer',$,IFCLABEL('wall'),$);
#729=IFCPROPERTYSINGLEVALUE('Detector',$,IFCLABEL('paired-line'),$);
#730=IFCPROPERTYSINGLEVALUE('ThicknessIn',$,IFCREAL(4.1299999999999999),$);
#731=IFCPROPERTYSINGLEVALUE('ScalePtPerFt',$,IFCREAL(11.861000000000001),$);
#732=IFCWALL('3H0jkHsu5AJAbRhYvIdvfh',$,'W032',$,$,#748,#743,$,$);
#733=IFCCARTESIANPOINTLIST2D(((0.,-0.16652075691374327),(0.49031109579517423,-0.16652075691374327),(0.49031109579517423,0.16652075691374327),(0.,0.16652075691374327)));
#734=IFCINDEXEDPOLYCURVE(#733,(IFCLINEINDEX((1,2,3,4,1))),$);
#735=IFCARBITRARYCLOSEDPROFILEDEF(.AREA.,$,#734);
#736=IFCCARTESIANPOINT((0.,0.,0.));
#737=IFCDIRECTION((0.,0.,1.));
#738=IFCDIRECTION((1.,0.,0.));
#739=IFCAXIS2PLACEMENT3D(#736,#737,#738);
#740=IFCDIRECTION((0.,0.,1.));
#741=IFCEXTRUDEDAREASOLID(#735,#739,#740,3.048);
#742=IFCSHAPEREPRESENTATION(#11,'Body','SweptSolid',(#741));
#743=IFCPRODUCTDEFINITIONSHAPE($,$,(#742));
#744=IFCCARTESIANPOINT((5.4782281504946955,5.7804331333799457,0.));
#745=IFCDIRECTION((0.,0.,1.));
#746=IFCDIRECTION((6.123233995736766E-17,1.,0.));
#747=IFCAXIS2PLACEMENT3D(#744,#745,#746);
#748=IFCLOCALPLACEMENT($,#747);
#749=IFCPROPERTYSET('3DlsIduvP5Hhc3xjQMV4Tp',$,'ArchiAgent_Provenance',$,(#751,#752,#753,#754));
#750=IFCRELDEFINESBYPROPERTIES('1Ds7pPsGnEde8V1n1Bz43p',$,$,$,(#732),#749);
#751=IFCPROPERTYSINGLEVALUE('SourceLayer',$,IFCLABEL('wall'),$);
#752=IFCPROPERTYSINGLEVALUE('Detector',$,IFCLABEL('paired-line'),$);
#753=IFCPROPERTYSINGLEVALUE('ThicknessIn',$,IFCREAL(13.109999999999999),$);
#754=IFCPROPERTYSINGLEVALUE('ScalePtPerFt',$,IFCREAL(11.861000000000001),$);
#755=IFCWALL('0PPl2v1$n4v9b8OcghfOjL',$,'W033',$,$,#771,#766,$,$);
#756=IFCCARTESIANPOINTLIST2D(((0.,-0.074009007453194803),(2.1030967779941867,-0.074009007453194803),(2.1030967779941867,0.074009007453194803),(0.,0.074009007453194803)));
#757=IFCINDEXEDPOLYCURVE(#756,(IFCLINEINDEX((1,2,3,4,1))),$);
#758=IFCARBITRARYCLOSEDPROFILEDEF(.AREA.,$,#757);
#759=IFCCARTESIANPOINT((0.,0.,0.));
#760=IFCDIRECTION((0.,0.,1.));
#761=IFCDIRECTION((1.,0.,0.));
#762=IFCAXIS2PLACEMENT3D(#759,#760,#761);
#763=IFCDIRECTION((0.,0.,1.));
#764=IFCEXTRUDEDAREASOLID(#758,#762,#763,3.048);
#765=IFCSHAPEREPRESENTATION(#11,'Body','SweptSolid',(#764));
#766=IFCPRODUCTDEFINITIONSHAPE($,$,(#765));
#767=IFCCARTESIANPOINT((5.3857164010341458,7.3346273873952059,0.));
#768=IFCDIRECTION((0.,0.,1.));
#769=IFCDIRECTION((6.123233995736766E-17,1.,0.));
#770=IFCAXIS2PLACEMENT3D(#767,#768,#769);
#771=IFCLOCALPLACEMENT($,#770);
#772=IFCPROPERTYSET('210mBhsYH83wSvJR5HV6cq',$,'ArchiAgent_Provenance',$,(#774,#775,#776,#777));
#773=IFCRELDEFINESBYPROPERTIES('0neQ84LybCseSeCImS79bH',$,$,$,(#755),#772);
#774=IFCPROPERTYSINGLEVALUE('SourceLayer',$,IFCLABEL('wall'),$);
#775=IFCPROPERTYSINGLEVALUE('Detector',$,IFCLABEL('paired-line'),$);
#776=IFCPROPERTYSINGLEVALUE('ThicknessIn',$,IFCREAL(5.8300000000000001),$);
#777=IFCPROPERTYSINGLEVALUE('ScalePtPerFt',$,IFCREAL(11.861000000000001),$);
#778=IFCWALL('0ge6y0CR9AKf3rKjfODP1E',$,'W034',$,$,#794,#789,$,$);
#779=IFCCARTESIANPOINTLIST2D(((0.,-0.074009007453194803),(0.50264547290292327,-0.074009007453194803),(0.50264547290292327,0.074009007453194803),(0.,0.074009007453194803)));
#780=IFCINDEXEDPOLYCURVE(#779,(IFCLINEINDEX((1,2,3,4,1))),$);
#781=IFCARBITRARYCLOSEDPROFILEDEF(.AREA.,$,#780);
#782=IFCCARTESIANPOINT((0.,0.,0.));
#783=IFCDIRECTION((0.,0.,1.));
#784=IFCDIRECTION((1.,0.,0.));
#785=IFCAXIS2PLACEMENT3D(#782,#783,#784);
#786=IFCDIRECTION((0.,0.,1.));
#787=IFCEXTRUDEDAREASOLID(#781,#785,#786,3.048);
#788=IFCSHAPEREPRESENTATION(#11,'Body','SweptSolid',(#787));
#789=IFCPRODUCTDEFINITIONSHAPE($,$,(#788));
#790=IFCCARTESIANPOINT((5.3857164010341458,10.273412720580776,0.));
#791=IFCDIRECTION((0.,0.,1.));
#792=IFCDIRECTION((6.123233995736766E-17,1.,0.));
#793=IFCAXIS2PLACEMENT3D(#790,#791,#792);
#794=IFCLOCALPLACEMENT($,#793);
#795=IFCPROPERTYSET('1o40IUlav9wBC1HpVMaU3P',$,'ArchiAgent_Provenance',$,(#797,#798,#799,#800));
#796=IFCRELDEFINESBYPROPERTIES('25Bo4SrHbDUBNLLDKoM5dg',$,$,$,(#778),#795);
#797=IFCPROPERTYSINGLEVALUE('SourceLayer',$,IFCLABEL('wall'),$);
#798=IFCPROPERTYSINGLEVALUE('Detector',$,IFCLABEL('paired-line'),$);
#799=IFCPROPERTYSINGLEVALUE('ThicknessIn',$,IFCREAL(5.8300000000000001),$);
#800=IFCPROPERTYSINGLEVALUE('ScalePtPerFt',$,IFCREAL(11.861000000000001),$);
#801=IFCWALL('13ihvKPUn0cQbX_Gspi$4g',$,'W035',$,$,#817,#812,$,$);
#802=IFCCARTESIANPOINTLIST2D(((0.,-0.050881658260923265),(2.6982555688186349,-0.050881658260923265),(2.6982555688186349,0.050881658260923265),(0.,0.050881658260923265)));
#803=IFCINDEXEDPOLYCURVE(#802,(IFCLINEINDEX((1,2,3,4,1))),$);
#804=IFCARBITRARYCLOSEDPROFILEDEF(.AREA.,$,#803);
#805=IFCCARTESIANPOINT((0.,0.,0.));
#806=IFCDIRECTION((0.,0.,1.));
#807=IFCDIRECTION((1.,0.,0.));
#808=IFCAXIS2PLACEMENT3D(#805,#806,#807);
#809=IFCDIRECTION((0.,0.,1.));
#810=IFCEXTRUDEDAREASOLID(#804,#808,#809,3.048);
#811=IFCSHAPEREPRESENTATION(#11,'Body','SweptSolid',(#810));
#812=IFCPRODUCTDEFINITIONSHAPE($,$,(#811));
#813=IFCCARTESIANPOINT((6.8396903120117587,8.3985105456152915,0.));
#814=IFCDIRECTION((0.,0.,1.));
#815=IFCDIRECTION((6.123233995736766E-17,1.,0.));
#816=IFCAXIS2PLACEMENT3D(#813,#814,#815);
#817=IFCLOCALPLACEMENT($,#816);
#818=IFCPROPERTYSET('3tsWm_o1DAKPL92I6gWE30',$,'ArchiAgent_Provenance',$,(#820,#821,#822,#823));
#819=IFCRELDEFINESBYPROPERTIES('0fGXeGUFP8aO2lP$fEGYeV',$,$,$,(#801),#818);
#820=IFCPROPERTYSINGLEVALUE('SourceLayer',$,IFCLABEL('wall'),$);
#821=IFCPROPERTYSINGLEVALUE('Detector',$,IFCLABEL('paired-line'),$);
#822=IFCPROPERTYSINGLEVALUE('ThicknessIn',$,IFCREAL(4.0099999999999998),$);
#823=IFCPROPERTYSINGLEVALUE('ScalePtPerFt',$,IFCREAL(11.861000000000001),$);
#824=IFCWALL('3RRhEo7AP3qxZxnsnzSeSp',$,'W036',$,$,#840,#835,$,$);
#825=IFCCARTESIANPOINTLIST2D(((0.,-0.050880874030436195),(3.0775517810306621,-0.050880874030436195),(3.0775517810306621,0.050880874030436195),(0.,0.050880874030436195)));
#826=IFCINDEXEDPOLYCURVE(#825,(IFCLINEINDEX((1,2,3,4,1))),$);
#827=IFCARBITRARYCLOSEDPROFILEDEF(.AREA.,$,#826);
#828=IFCCARTESIANPOINT((0.,0.,0.));
#829=IFCDIRECTION((0.,0.,1.));
#830=IFCDIRECTION((1.,0.,0.));
#831=IFCAXIS2PLACEMENT3D(#828,#829,#830);
#832=IFCDIRECTION((0.,0.,1.));
#833=IFCEXTRUDEDAREASOLID(#827,#831,#832,3.048);
#834=IFCSHAPEREPRESENTATION(#11,'Body','SweptSolid',(#833));
#835=IFCPRODUCTDEFINITIONSHAPE($,$,(#834));
#836=IFCCARTESIANPOINT((9.5842005792149347,6.5328607219415922,0.));
#837=IFCDIRECTION((0.,0.,1.));
#838=IFCDIRECTION((6.123233995736766E-17,1.,0.));
#839=IFCAXIS2PLACEMENT3D(#836,#837,#838);
#840=IFCLOCALPLACEMENT($,#839);
#841=IFCPROPERTYSET('1GKI0ZXk54R9gg_YcAL1Ts',$,'ArchiAgent_Provenance',$,(#843,#844,#845,#846));
#842=IFCRELDEFINESBYPROPERTIES('2vxc883oXCPxwBopoM5Hoy',$,$,$,(#824),#841);
#843=IFCPROPERTYSINGLEVALUE('SourceLayer',$,IFCLABEL('wall'),$);
#844=IFCPROPERTYSINGLEVALUE('Detector',$,IFCLABEL('paired-line'),$);
#845=IFCPROPERTYSINGLEVALUE('ThicknessIn',$,IFCREAL(4.0099999999999998),$);
#846=IFCPROPERTYSINGLEVALUE('ScalePtPerFt',$,IFCREAL(11.861000000000001),$);
#847=IFCWALL('2k4iaXmuT3ePZXaPZT104N',$,'W037',$,$,#863,#858,$,$);
#848=IFCCARTESIANPOINTLIST2D(((0.,-0.050880874030436195),(2.1030967779941876,-0.050880874030436195),(2.1030967779941876,0.050880874030436195),(0.,0.050880874030436195)));
#849=IFCINDEXEDPOLYCURVE(#848,(IFCLINEINDEX((1,2,3,4,1))),$);
#850=IFCARBITRARYCLOSEDPROFILEDEF(.AREA.,$,#849);
#851=IFCCARTESIANPOINT((0.,0.,0.));
#852=IFCDIRECTION((0.,0.,1.));
#853=IFCDIRECTION((1.,0.,0.));
#854=IFCAXIS2PLACEMENT3D(#851,#852,#853);
#855=IFCDIRECTION((0.,0.,1.));
#856=IFCEXTRUDEDAREASOLID(#850,#854,#855,3.048);
#857=IFCSHAPEREPRESENTATION(#11,'Body','SweptSolid',(#856));
#858=IFCPRODUCTDEFINITIONSHAPE($,$,(#857));
#859=IFCCARTESIANPOINT((9.5842005792149347,3.4368058067883314,0.));
#860=IFCDIRECTION((0.,0.,1.));
#861=IFCDIRECTION((6.123233995736766E-17,1.,0.));
#862=IFCAXIS2PLACEMENT3D(#859,#860,#861);
#863=IFCLOCALPLACEMENT($,#862);
#864=IFCPROPERTYSET('1FXlrKbM59VQb5ZHxcQQOu',$,'ArchiAgent_Provenance',$,(#866,#867,#868,#869));
#865=IFCRELDEFINESBYPROPERTIES('3UFAYK32D3quEcrS0nb2pF',$,$,$,(#847),#864);
#866=IFCPROPERTYSINGLEVALUE('SourceLayer',$,IFCLABEL('wall'),$);
#867=IFCPROPERTYSINGLEVALUE('Detector',$,IFCLABEL('paired-line'),$);
#868=IFCPROPERTYSINGLEVALUE('ThicknessIn',$,IFCREAL(4.0099999999999998),$);
#869=IFCPROPERTYSINGLEVALUE('ScalePtPerFt',$,IFCREAL(11.861000000000001),$);
#870=IFCWALL('2zsxYWlDvACAjxiIGeOzY8',$,'W038',$,$,#886,#881,$,$);
#871=IFCCARTESIANPOINTLIST2D(((0.,-0.050880874030436195),(1.3845902949398239,-0.050880874030436195),(1.3845902949398239,0.050880874030436195),(0.,0.050880874030436195)));
#872=IFCINDEXEDPOLYCURVE(#871,(IFCLINEINDEX((1,2,3,4,1))),$);
#873=IFCARBITRARYCLOSEDPROFILEDEF(.AREA.,$,#872);
#874=IFCCARTESIANPOINT((0.,0.,0.));
#875=IFCDIRECTION((0.,0.,1.));
#876=IFCDIRECTION((1.,0.,0.));
#877=IFCAXIS2PLACEMENT3D(#874,#875,#876);
#878=IFCDIRECTION((0.,0.,1.));
#879=IFCEXTRUDEDAREASOLID(#873,#877,#878,3.048);
#880=IFCSHAPEREPRESENTATION(#11,'Body','SweptSolid',(#879));
#881=IFCPRODUCTDEFINITIONSHAPE($,$,(#880));
#882=IFCCARTESIANPOINT((9.5842005792149347,0.97599719229018655,0.));
#883=IFCDIRECTION((0.,0.,1.));
#884=IFCDIRECTION((6.123233995736766E-17,1.,0.));
#885=IFCAXIS2PLACEMENT3D(#882,#883,#884);
#886=IFCLOCALPLACEMENT($,#885);
#887=IFCPROPERTYSET('0uKwXbRgf36B02LFKwxZuT',$,'ArchiAgent_Provenance',$,(#889,#890,#891,#892));
#888=IFCRELDEFINESBYPROPERTIES('0EIFI2C9D3oBad7tCftl$I',$,$,$,(#870),#887);
#889=IFCPROPERTYSINGLEVALUE('SourceLayer',$,IFCLABEL('wall'),$);
#890=IFCPROPERTYSINGLEVALUE('Detector',$,IFCLABEL('paired-line'),$);
#891=IFCPROPERTYSINGLEVALUE('ThicknessIn',$,IFCREAL(4.0099999999999998),$);
#892=IFCPROPERTYSINGLEVALUE('ScalePtPerFt',$,IFCREAL(11.861000000000001),$);
#893=IFCWALL('1Afld4tAj9jQDkncLKo1d5',$,'W039',$,$,#909,#904,$,$);
#894=IFCCARTESIANPOINTLIST2D(((0.,-0.052423455399391222),(0.54890173974843948,-0.052423455399391222),(0.54890173974843948,0.052423455399391222),(0.,0.052423455399391222)));
#895=IFCINDEXEDPOLYCURVE(#894,(IFCLINEINDEX((1,2,3,4,1))),$);
#896=IFCARBITRARYCLOSEDPROFILEDEF(.AREA.,$,#895);
#897=IFCCARTESIANPOINT((0.,0.,0.));
#898=IFCDIRECTION((0.,0.,1.));
#899=IFCDIRECTION((1.,0.,0.));
#900=IFCAXIS2PLACEMENT3D(#897,#898,#899);
#901=IFCDIRECTION((0.,0.,1.));
#902=IFCEXTRUDEDAREASOLID(#896,#900,#901,3.048);
#903=IFCSHAPEREPRESENTATION(#11,'Body','SweptSolid',(#902));
#904=IFCPRODUCTDEFINITIONSHAPE($,$,(#903));
#905=IFCCARTESIANPOINT((10.646541940296553,6.0888051087614476,0.));
#906=IFCDIRECTION((0.,0.,1.));
#907=IFCDIRECTION((6.123233995736766E-17,1.,0.));
#908=IFCAXIS2PLACEMENT3D(#905,#906,#907);
#909=IFCLOCALPLACEMENT($,#908);
#910=IFCPROPERTYSET('1zyyJrFY56Y9lELXxvjlBI',$,'ArchiAgent_Provenance',$,(#912,#913,#914,#915));
#911=IFCRELDEFINESBYPROPERTIES('05LMU4mDjBOf807Qg7Vh3O',$,$,$,(#893),#910);
#912=IFCPROPERTYSINGLEVALUE('SourceLayer',$,IFCLABEL('wall'),$);
#913=IFCPROPERTYSINGLEVALUE('Detector',$,IFCLABEL('paired-line'),$);
#914=IFCPROPERTYSINGLEVALUE('ThicknessIn',$,IFCREAL(4.1299999999999999),$);
#915=IFCPROPERTYSINGLEVALUE('ScalePtPerFt',$,IFCREAL(11.861000000000001),$);
#916=IFCWALL('1wyRYKfdj9WQwIjKEJ6t0v',$,'W040',$,$,#932,#927,$,$);
#917=IFCCARTESIANPOINTLIST2D(((0.,-0.052423455399391222),(0.54581814547150243,-0.052423455399391222),(0.54581814547150243,0.052423455399391222),(0.,0.052423455399391222)));
#918=IFCINDEXEDPOLYCURVE(#917,(IFCLINEINDEX((1,2,3,4,1))),$);
#919=IFCARBITRARYCLOSEDPROFILEDEF(.AREA.,$,#918);
#920=IFCCARTESIANPOINT((0.,0.,0.));
#921=IFCDIRECTION((0.,0.,1.));
#922=IFCDIRECTION((1.,0.,0.));
#923=IFCAXIS2PLACEMENT3D(#920,#921,#922);
#924=IFCDIRECTION((0.,0.,1.));
#925=IFCEXTRUDEDAREASOLID(#919,#923,#924,3.048);
#926=IFCSHAPEREPRESENTATION(#11,'Body','SweptSolid',(#925));
#927=IFCPRODUCTDEFINITIONSHAPE($,$,(#926));
#928=IFCCARTESIANPOINT((10.646541940296553,5.4381400524911605,0.));
#929=IFCDIRECTION((0.,0.,1.));
#930=IFCDIRECTION((6.123233995736766E-17,1.,0.));
#931=IFCAXIS2PLACEMENT3D(#928,#929,#930);
#932=IFCLOCALPLACEMENT($,#931);
#933=IFCPROPERTYSET('0XZt2c_DvAJPTeFJJMWDbB',$,'ArchiAgent_Provenance',$,(#935,#936,#937,#938));
#934=IFCRELDEFINESBYPROPERTIES('0EJauJWJ9FWxucXHa3PJeL',$,$,$,(#916),#933);
#935=IFCPROPERTYSINGLEVALUE('SourceLayer',$,IFCLABEL('wall'),$);
#936=IFCPROPERTYSINGLEVALUE('Detector',$,IFCLABEL('paired-line'),$);
#937=IFCPROPERTYSINGLEVALUE('ThicknessIn',$,IFCREAL(4.1299999999999999),$);
#938=IFCPROPERTYSINGLEVALUE('ScalePtPerFt',$,IFCREAL(11.861000000000001),$);
#939=IFCWALL('3aKu1dLFP8wuD3NUfdZ_Kp',$,'W041',$,$,#955,#950,$,$);
#940=IFCCARTESIANPOINTLIST2D(((0.,-0.050880874030436195),(0.69692132311580857,-0.050880874030436195),(0.69692132311580857,0.050880874030436195),(0.,0.050880874030436195)));
#941=IFCINDEXEDPOLYCURVE(#940,(IFCLINEINDEX((1,2,3,4,1))),$);
#942=IFCARBITRARYCLOSEDPROFILEDEF(.AREA.,$,#941);
#943=IFCCARTESIANPOINT((0.,0.,0.));
#944=IFCDIRECTION((0.,0.,1.));
#945=IFCDIRECTION((1.,0.,0.));
#946=IFCAXIS2PLACEMENT3D(#943,#944,#945);
#947=IFCDIRECTION((0.,0.,1.));
#948=IFCEXTRUDEDAREASOLID(#942,#946,#947,3.048);
#949=IFCSHAPEREPRESENTATION(#11,'Body','SweptSolid',(#948));
#950=IFCPRODUCTDEFINITIONSHAPE($,$,(#949));
#951=IFCCARTESIANPOINT((11.619455930425048,10.399844791318118,0.));
#952=IFCDIRECTION((0.,0.,1.));
#953=IFCDIRECTION((6.123233995736766E-17,1.,0.));
#954=IFCAXIS2PLACEMENT3D(#951,#952,#953);
#955=IFCLOCALPLACEMENT($,#954);
#956=IFCPROPERTYSET('2GU$d2KfL3qPIboSOIh5JT',$,'ArchiAgent_Provenance',$,(#958,#959,#960,#961));
#957=IFCRELDEFINESBYPROPERTIES('1fT3WOaU15kxbm$zrYRqGs',$,$,$,(#939),#956);
#958=IFCPROPERTYSINGLEVALUE('SourceLayer',$,IFCLABEL('wall'),$);
#959=IFCPROPERTYSINGLEVALUE('Detector',$,IFCLABEL('paired-line'),$);
#960=IFCPROPERTYSINGLEVALUE('ThicknessIn',$,IFCREAL(4.0099999999999998),$);
#961=IFCPROPERTYSINGLEVALUE('ScalePtPerFt',$,IFCREAL(11.861000000000001),$);
#962=IFCWALL('0IYcObJUD63B4wcigETeVM',$,'W042',$,$,#978,#973,$,$);
#963=IFCCARTESIANPOINTLIST2D(((0.,-0.050880874030436195),(0.6969205388853178,-0.050880874030436195),(0.6969205388853178,0.050880874030436195),(0.,0.050880874030436195)));
#964=IFCINDEXEDPOLYCURVE(#963,(IFCLINEINDEX((1,2,3,4,1))),$);
#965=IFCARBITRARYCLOSEDPROFILEDEF(.AREA.,$,#964);
#966=IFCCARTESIANPOINT((0.,0.,0.));
#967=IFCDIRECTION((0.,0.,1.));
#968=IFCDIRECTION((1.,0.,0.));
#969=IFCAXIS2PLACEMENT3D(#966,#967,#968);
#970=IFCDIRECTION((0.,0.,1.));
#971=IFCEXTRUDEDAREASOLID(#965,#969,#970,3.048);
#972=IFCSHAPEREPRESENTATION(#11,'Body','SweptSolid',(#971));
#973=IFCPRODUCTDEFINITIONSHAPE($,$,(#972));
#974=IFCCARTESIANPOINT((11.619455930425048,0.97599719229018655,0.));
#975=IFCDIRECTION((0.,0.,1.));
#976=IFCDIRECTION((6.123233995736766E-17,1.,0.));
#977=IFCAXIS2PLACEMENT3D(#974,#975,#976);
#978=IFCLOCALPLACEMENT($,#977);
#979=IFCPROPERTYSET('2siQ4$nZjD390ErxPrXrsr',$,'ArchiAgent_Provenance',$,(#981,#982,#983,#984));
#980=IFCRELDEFINESBYPROPERTIES('3Q5YX0mEXA1RUUJeQf2U5Y',$,$,$,(#962),#979);
#981=IFCPROPERTYSINGLEVALUE('SourceLayer',$,IFCLABEL('wall'),$);
#982=IFCPROPERTYSINGLEVALUE('Detector',$,IFCLABEL('paired-line'),$);
#983=IFCPROPERTYSINGLEVALUE('ThicknessIn',$,IFCREAL(4.0099999999999998),$);
#984=IFCPROPERTYSINGLEVALUE('ScalePtPerFt',$,IFCREAL(11.861000000000001),$);
#985=IFCWALL('0AHm9H_HzBSeljpzbmLga0',$,'W043',$,$,#1001,#996,$,$);
#986=IFCCARTESIANPOINTLIST2D(((0.,-0.050880874030436195),(0.82335417808363598,-0.050880874030436195),(0.82335417808363598,0.050880874030436195),(0.,0.050880874030436195)));
#987=IFCINDEXEDPOLYCURVE(#986,(IFCLINEINDEX((1,2,3,4,1))),$);
#988=IFCARBITRARYCLOSEDPROFILEDEF(.AREA.,$,#987);
#989=IFCCARTESIANPOINT((0.,0.,0.));
#990=IFCDIRECTION((0.,0.,1.));
#991=IFCDIRECTION((1.,0.,0.));
#992=IFCAXIS2PLACEMENT3D(#989,#990,#991);
#993=IFCDIRECTION((0.,0.,1.));
#994=IFCEXTRUDEDAREASOLID(#988,#992,#993,3.048);
#995=IFCSHAPEREPRESENTATION(#11,'Body','SweptSolid',(#994));
#996=IFCPRODUCTDEFINITIONSHAPE($,$,(#995));
#997=IFCCARTESIANPOINT((11.619455930425048,11.198527862494794,0.));
#998=IFCDIRECTION((0.,0.,1.));
#999=IFCDIRECTION((6.123233995736766E-17,1.,0.));
#1000=IFCAXIS2PLACEMENT3D(#997,#998,#999);
#1001=IFCLOCALPLACEMENT($,#1000);
#1002=IFCPROPERTYSET('0kfQxgJZ97NBw1mqIrBLZw',$,'ArchiAgent_Provenance',$,(#1004,#1005,#1006,#1007));
#1003=IFCRELDEFINESBYPROPERTIES('2Rhf8sUUb1ZxYOMRYenhwp',$,$,$,(#985),#1002);
#1004=IFCPROPERTYSINGLEVALUE('SourceLayer',$,IFCLABEL('wall'),$);
#1005=IFCPROPERTYSINGLEVALUE('Detector',$,IFCLABEL('paired-line'),$);
#1006=IFCPROPERTYSINGLEVALUE('ThicknessIn',$,IFCREAL(4.0099999999999998),$);
#1007=IFCPROPERTYSINGLEVALUE('ScalePtPerFt',$,IFCREAL(11.861000000000001),$);
#1008=IFCWALL('3l1fbeR$51Vfsm7rYGrv0l',$,'W044',$,$,#1024,#1019,$,$);
#1009=IFCCARTESIANPOINTLIST2D(((0.,-0.050880874030436195),(0.82335417808363542,-0.050880874030436195),(0.82335417808363542,0.050880874030436195),(0.,0.050880874030436195)));
#1010=IFCINDEXEDPOLYCURVE(#1009,(IFCLINEINDEX((1,2,3,4,1))),$);
#1011=IFCARBITRARYCLOSEDPROFILEDEF(.AREA.,$,#1010);
#1012=IFCCARTESIANPOINT((0.,0.,0.));
#1013=IFCDIRECTION((0.,0.,1.));
#1014=IFCDIRECTION((1.,0.,0.));
#1015=IFCAXIS2PLACEMENT3D(#1012,#1013,#1014);
#1016=IFCDIRECTION((0.,0.,1.));
#1017=IFCEXTRUDEDAREASOLID(#1011,#1015,#1016,3.048);
#1018=IFCSHAPEREPRESENTATION(#11,'Body','SweptSolid',(#1017));
#1019=IFCPRODUCTDEFINITIONSHAPE($,$,(#1018));
#1020=IFCCARTESIANPOINT((11.619455930425048,0.050881266145679727,0.));
#1021=IFCDIRECTION((0.,0.,1.));
#1022=IFCDIRECTION((6.123233995736766E-17,1.,0.));
#1023=IFCAXIS2PLACEMENT3D(#1020,#1021,#1022);
#1024=IFCLOCALPLACEMENT($,#1023);
#1025=IFCPROPERTYSET('3VxUQ8y891IQDtXz8ln6Cu',$,'ArchiAgent_Provenance',$,(#1027,#1028,#1029,#1030));
#1026=IFCRELDEFINESBYPROPERTIES('3beWsrMk10uhk7r26z4KFf',$,$,$,(#1008),#1025);
#1027=IFCPROPERTYSINGLEVALUE('SourceLayer',$,IFCLABEL('wall'),$);
#1028=IFCPROPERTYSINGLEVALUE('Detector',$,IFCLABEL('paired-line'),$);
#1029=IFCPROPERTYSINGLEVALUE('ThicknessIn',$,IFCREAL(4.0099999999999998),$);
#1030=IFCPROPERTYSINGLEVALUE('ScalePtPerFt',$,IFCREAL(11.861000000000001),$);
#1031=IFCWALL('0pigcFc$b9rulPc0QK6N0S',$,'W045',$,$,#1047,#1042,$,$);
#1032=IFCCARTESIANPOINTLIST2D(((0.,-0.052422671168904145),(1.2119019573569627,-0.052422671168904145),(1.2119019573569627,0.052422671168904145),(0.,0.052422671168904145)));
#1033=IFCINDEXEDPOLYCURVE(#1032,(IFCLINEINDEX((1,2,3,4,1))),$);
#1034=IFCARBITRARYCLOSEDPROFILEDEF(.AREA.,$,#1033);
#1035=IFCCARTESIANPOINT((0.,0.,0.));
#1036=IFCDIRECTION((0.,0.,1.));
#1037=IFCDIRECTION((1.,0.,0.));
#1038=IFCAXIS2PLACEMENT3D(#1035,#1036,#1037);
#1039=IFCDIRECTION((0.,0.,1.));
#1040=IFCEXTRUDEDAREASOLID(#1034,#1038,#1039,3.048);
#1041=IFCSHAPEREPRESENTATION(#11,'Body','SweptSolid',(#1040));
#1042=IFCPRODUCTDEFINITIONSHAPE($,$,(#1041));
#1043=IFCCARTESIANPOINT((13.437308474345247,8.3985105456152915,0.));
#1044=IFCDIRECTION((0.,0.,1.));
#1045=IFCDIRECTION((6.123233995736766E-17,1.,0.));
#1046=IFCAXIS2PLACEMENT3D(#1043,#1044,#1045);
#1047=IFCLOCALPLACEMENT($,#1046);
#1048=IFCPROPERTYSET('3TLMcYlGL5GvkvQoCXDBB5',$,'ArchiAgent_Provenance',$,(#1050,#1051,#1052,#1053));
#1049=IFCRELDEFINESBYPROPERTIES('30tkUf1If1ouYWWvfa0HUG',$,$,$,(#1031),#1048);
#1050=IFCPROPERTYSINGLEVALUE('SourceLayer',$,IFCLABEL('wall'),$);
#1051=IFCPROPERTYSINGLEVALUE('Detector',$,IFCLABEL('paired-line'),$);
#1052=IFCPROPERTYSINGLEVALUE('ThicknessIn',$,IFCREAL(4.1299999999999999),$);
#1053=IFCPROPERTYSINGLEVALUE('ScalePtPerFt',$,IFCREAL(11.861000000000001),$);
#1054=IFCWALL('3lKjuIDafECQ4Y5vSRUAJQ',$,'W046',$,$,#1070,#1065,$,$);
#1055=IFCCARTESIANPOINTLIST2D(((0.,-0.052422671168904145),(1.2119011731264755,-0.052422671168904145),(1.2119011731264755,0.052422671168904145),(0.,0.052422671168904145)));
#1056=IFCINDEXEDPOLYCURVE(#1055,(IFCLINEINDEX((1,2,3,4,1))),$);
#1057=IFCARBITRARYCLOSEDPROFILEDEF(.AREA.,$,#1056);
#1058=IFCCARTESIANPOINT((0.,0.,0.));
#1059=IFCDIRECTION((0.,0.,1.));
#1060=IFCDIRECTION((1.,0.,0.));
#1061=IFCAXIS2PLACEMENT3D(#1058,#1059,#1060);
#1062=IFCDIRECTION((0.,0.,1.));
#1063=IFCEXTRUDEDAREASOLID(#1057,#1061,#1062,3.048);
#1064=IFCSHAPEREPRESENTATION(#11,'Body','SweptSolid',(#1063));
#1065=IFCPRODUCTDEFINITIONSHAPE($,$,(#1064));
#1066=IFCCARTESIANPOINT((13.437308474345247,2.4623508037518569,0.));
#1067=IFCDIRECTION((0.,0.,1.));
#1068=IFCDIRECTION((6.123233995736766E-17,1.,0.));
#1069=IFCAXIS2PLACEMENT3D(#1066,#1067,#1068);
#1070=IFCLOCALPLACEMENT($,#1069);
#1071=IFCPROPERTYSET('3xg$HPdMz8N8DipV$CS2q1',$,'ArchiAgent_Provenance',$,(#1073,#1074,#1075,#1076));
#1072=IFCRELDEFINESBYPROPERTIES('0y5bYIu8z5BvGtWDob0wka',$,$,$,(#1054),#1071);
#1073=IFCPROPERTYSINGLEVALUE('SourceLayer',$,IFCLABEL('wall'),$);
#1074=IFCPROPERTYSINGLEVALUE('Detector',$,IFCLABEL('paired-line'),$);
#1075=IFCPROPERTYSINGLEVALUE('ThicknessIn',$,IFCREAL(4.1299999999999999),$);
#1076=IFCPROPERTYSINGLEVALUE('ScalePtPerFt',$,IFCREAL(11.861000000000001),$);
#1077=IFCWALL('1o878LF3zClRbQ0q15NzK_',$,'W047',$,$,#1093,#1088,$,$);
#1078=IFCCARTESIANPOINTLIST2D(((0.,-0.052422671168904145),(2.3097062210843307,-0.052422671168904145),(2.3097062210843307,0.052422671168904145),(0.,0.052422671168904145)));
#1079=IFCINDEXEDPOLYCURVE(#1078,(IFCLINEINDEX((1,2,3,4,1))),$);
#1080=IFCARBITRARYCLOSEDPROFILEDEF(.AREA.,$,#1079);
#1081=IFCCARTESIANPOINT((0.,0.,0.));
#1082=IFCDIRECTION((0.,0.,1.));
#1083=IFCDIRECTION((1.,0.,0.));
#1084=IFCAXIS2PLACEMENT3D(#1081,#1082,#1083);
#1085=IFCDIRECTION((0.,0.,1.));
#1086=IFCEXTRUDEDAREASOLID(#1080,#1084,#1085,3.048);
#1087=IFCSHAPEREPRESENTATION(#11,'Body','SweptSolid',(#1086));
#1088=IFCPRODUCTDEFINITIONSHAPE($,$,(#1087));
#1089=IFCCARTESIANPOINT((13.437308474345247,3.6742519768783324,0.));
#1090=IFCDIRECTION((0.,0.,1.));
#1091=IFCDIRECTION((6.123233995736766E-17,1.,0.));
#1092=IFCAXIS2PLACEMENT3D(#1089,#1090,#1091);
#1093=IFCLOCALPLACEMENT($,#1092);
#1094=IFCPROPERTYSET('0FtzRgoV9E9wac042oJfZ0',$,'ArchiAgent_Provenance',$,(#1096,#1097,#1098,#1099));
#1095=IFCRELDEFINESBYPROPERTIES('3w1$EkDwX6KPP9GCnR6gHw',$,$,$,(#1077),#1094);
#1096=IFCPROPERTYSINGLEVALUE('SourceLayer',$,IFCLABEL('wall'),$);
#1097=IFCPROPERTYSINGLEVALUE('Detector',$,IFCLABEL('paired-line'),$);
#1098=IFCPROPERTYSINGLEVALUE('ThicknessIn',$,IFCREAL(4.1299999999999999),$);
#1099=IFCPROPERTYSINGLEVALUE('ScalePtPerFt',$,IFCREAL(11.861000000000001),$);
#1100=IFCWALL('0fZpDwd4f80hIhVZYQluRK',$,'W048',$,$,#1116,#1111,$,$);
#1101=IFCCARTESIANPOINTLIST2D(((0.,-0.052422671168904145),(0.82335417808363598,-0.052422671168904145),(0.82335417808363598,0.052422671168904145),(0.,0.052422671168904145)));
#1102=IFCINDEXEDPOLYCURVE(#1101,(IFCLINEINDEX((1,2,3,4,1))),$);
#1103=IFCARBITRARYCLOSEDPROFILEDEF(.AREA.,$,#1102);
#1104=IFCCARTESIANPOINT((0.,0.,0.));
#1105=IFCDIRECTION((0.,0.,1.));
#1106=IFCDIRECTION((1.,0.,0.));
#1107=IFCAXIS2PLACEMENT3D(#1104,#1105,#1106);
#1108=IFCDIRECTION((0.,0.,1.));
#1109=IFCEXTRUDEDAREASOLID(#1103,#1107,#1108,3.048);
#1110=IFCSHAPEREPRESENTATION(#11,'Body','SweptSolid',(#1109));
#1111=IFCPRODUCTDEFINITIONSHAPE($,$,(#1110));
#1112=IFCCARTESIANPOINT((13.437308474345247,11.198527862494794,0.));
#1113=IFCDIRECTION((0.,0.,1.));
#1114=IFCDIRECTION((6.123233995736766E-17,1.,0.));
#1115=IFCAXIS2PLACEMENT3D(#1112,#1113,#1114);
#1116=IFCLOCALPLACEMENT($,#1115);
#1117=IFCPROPERTYSET('3sXT8t0DfELh9J4aOY_s$P',$,'ArchiAgent_Provenance',$,(#1119,#1120,#1121,#1122));
#1118=IFCRELDEFINESBYPROPERTIES('2ll0Dvh3LB2O$Jq$5ZnO6D',$,$,$,(#1100),#1117);
#1119=IFCPROPERTYSINGLEVALUE('SourceLayer',$,IFCLABEL('wall'),$);
#1120=IFCPROPERTYSINGLEVALUE('Detector',$,IFCLABEL('paired-line'),$);
#1121=IFCPROPERTYSINGLEVALUE('ThicknessIn',$,IFCREAL(4.1299999999999999),$);
#1122=IFCPROPERTYSINGLEVALUE('ScalePtPerFt',$,IFCREAL(11.861000000000001),$);
#1123=IFCWALL('3_hCz426r94ALGsA8yE6yv',$,'W049',$,$,#1139,#1134,$,$);
#1124=IFCCARTESIANPOINTLIST2D(((0.,-0.052422671168904145),(0.82335417808363542,-0.052422671168904145),(0.82335417808363542,0.052422671168904145),(0.,0.052422671168904145)));
#1125=IFCINDEXEDPOLYCURVE(#1124,(IFCLINEINDEX((1,2,3,4,1))),$);
#1126=IFCARBITRARYCLOSEDPROFILEDEF(.AREA.,$,#1125);
#1127=IFCCARTESIANPOINT((0.,0.,0.));
#1128=IFCDIRECTION((0.,0.,1.));
#1129=IFCDIRECTION((1.,0.,0.));
#1130=IFCAXIS2PLACEMENT3D(#1127,#1128,#1129);
#1131=IFCDIRECTION((0.,0.,1.));
#1132=IFCEXTRUDEDAREASOLID(#1126,#1130,#1131,3.048);
#1133=IFCSHAPEREPRESENTATION(#11,'Body','SweptSolid',(#1132));
#1134=IFCPRODUCTDEFINITIONSHAPE($,$,(#1133));
#1135=IFCCARTESIANPOINT((13.437308474345247,0.050881266145679727,0.));
#1136=IFCDIRECTION((0.,0.,1.));
#1137=IFCDIRECTION((6.123233995736766E-17,1.,0.));
#1138=IFCAXIS2PLACEMENT3D(#1135,#1136,#1137);
#1139=IFCLOCALPLACEMENT($,#1138);
#1140=IFCPROPERTYSET('1jGUgGnmf3WBFcv5Aabnl6',$,'ArchiAgent_Provenance',$,(#1142,#1143,#1144,#1145));
#1141=IFCRELDEFINESBYPROPERTIES('0ckPcbPur8Jxr6ZUaRsDd8',$,$,$,(#1123),#1140);
#1142=IFCPROPERTYSINGLEVALUE('SourceLayer',$,IFCLABEL('wall'),$);
#1143=IFCPROPERTYSINGLEVALUE('Detector',$,IFCLABEL('paired-line'),$);
#1144=IFCPROPERTYSINGLEVALUE('ThicknessIn',$,IFCREAL(4.1299999999999999),$);
#1145=IFCPROPERTYSINGLEVALUE('ScalePtPerFt',$,IFCREAL(11.861000000000001),$);
ENDSEC;
END-ISO-10303-21;
